<?xml version="1.0" encoding="utf-8"?>
<!-- Generator: Adobe Illustrator 26.1.0, SVG Export Plug-In . SVG Version: 6.00 Build 0)  -->
<svg version="1.1" id="Layer_1" xmlns="http://www.w3.org/2000/svg" xmlns:xlink="http://www.w3.org/1999/xlink" x="0px" y="0px"
	 viewBox="0 0 159.85 96.45" style="enable-background:new 0 0 159.85 96.45;" xml:space="preserve">
<style type="text/css">
	.st0{fill:none;stroke:#3C3C3B;stroke-width:2.1823;stroke-linecap:round;stroke-miterlimit:10;}
	.st1{fill:#3C3C3B;stroke:#3C3C3B;stroke-width:2;stroke-linecap:round;stroke-linejoin:round;stroke-miterlimit:10;}
	.st2{fill:#FFFFFF;}
	.st3{fill:#3C3C3B;stroke:#3C3C3B;stroke-width:0.5;stroke-miterlimit:10;}
</style>
<path class="st0" d="M41.44,42.14H30.51c-1.14,0-2.07-0.93-2.07-2.07v-8.48c0-1.14,0.93-2.07,2.07-2.07h10.93
	c1.14,0,2.07,0.93,2.07,2.07v8.48C43.51,41.21,42.58,42.14,41.44,42.14z"/>
<path class="st0" d="M73.84,50.71H62.91c-1.14,0-2.07-0.93-2.07-2.07v-8.48c0-1.14,0.93-2.07,2.07-2.07h10.93
	c1.14,0,2.07,0.93,2.07,2.07v8.48C75.91,49.78,74.98,50.71,73.84,50.71z"/>
<path class="st0" d="M50.86,29.52h-9.8c-1.14,0-2.07-0.93-2.07-2.07v-6.4c0-1.14,0.93-2.07,2.07-2.07h9.8
	c1.14,0,2.07,0.93,2.07,2.07v6.4C52.93,28.59,52,29.52,50.86,29.52z"/>
<path class="st0" d="M140.08,50.81h-9.8c-1.14,0-2.07-0.93-2.07-2.07v-6.4c0-1.14,0.93-2.07,2.07-2.07h9.8
	c1.14,0,2.07,0.93,2.07,2.07v6.4C142.15,49.88,141.23,50.81,140.08,50.81z"/>
<path class="st0" d="M76.65,12.97l2.25,2.54c1.93,2.18,1.73,5.51-0.45,7.45l0,0c-2.18,1.93-5.51,1.73-7.45-0.45l-2.25-2.54
	c-1.93-2.18-1.73-5.51,0.45-7.45l0,0C71.39,10.59,74.72,10.79,76.65,12.97z"/>
<path class="st0" d="M61.64,51.82l3.39,0.04c2.91,0.03,5.25,2.42,5.22,5.33v0c-0.03,2.91-2.42,5.25-5.33,5.22l-3.39-0.04
	c-2.91-0.03-5.25-2.42-5.22-5.33v0C56.34,54.13,58.73,51.79,61.64,51.82z"/>
<path class="st0" d="M35.98,49.26l-0.27,3.76c-0.24,3.23-3.04,5.66-6.27,5.42h0c-3.23-0.24-5.66-3.04-5.42-6.27l0.27-3.76
	c0.24-3.23,3.04-5.66,6.27-5.42h0C33.79,43.22,36.22,46.03,35.98,49.26z"/>
<path class="st0" d="M104.2,70.49l-5.12-0.74c-4.4-0.64-7.44-4.72-6.81-9.11v0c0.64-4.4,4.72-7.44,9.11-6.81l5.12,0.74
	c4.4,0.64,7.44,4.72,6.81,9.11v0C112.67,68.08,108.59,71.12,104.2,70.49z"/>
<path class="st0" d="M51.66,29.52h6.92c1.25,0,2.26,1.01,2.26,2.26v11.85c0,1.25-1.01,2.26-2.26,2.26h-6.92
	c-1.25,0-2.26-1.01-2.26-2.26V31.79C49.4,30.53,50.41,29.52,51.66,29.52z"/>
<path class="st0" d="M91.75,52.98v6.92c0,1.25-1.01,2.26-2.26,2.26H77.63c-1.25,0-2.26-1.01-2.26-2.26v-6.92
	c0-1.25,1.01-2.26,2.26-2.26h11.85C90.73,50.71,91.75,51.73,91.75,52.98z"/>
<path class="st0" d="M87.67,40.06v-15.4c0-0.94,0.76-1.7,1.7-1.7h3.42c0.94,0,1.7,0.76,1.7,1.7v15.4c0,0.94-0.76,1.7-1.7,1.7h-3.42
	C88.43,41.76,87.67,41,87.67,40.06z"/>
<path class="st0" d="M108.13,44.02v6.92c0,1.25-1.01,2.26-2.26,2.26H94.01c-1.25,0-2.26-1.01-2.26-2.26v-6.92
	c0-1.25,1.01-2.26,2.26-2.26h11.85C107.12,41.76,108.13,42.77,108.13,44.02z"/>
<path class="st0" d="M68.62,21.43c0.38-0.04,0.79-0.05,1.09,0.17c0.27,0.2,0.4,0.54,0.5,0.86c0.41,1.28,0.72,2.6,0.91,3.93
	c0.09,0.59,0.15,1.21-0.07,1.76c-0.18,0.48-0.55,0.87-0.81,1.31c-0.5,0.83-0.63,1.82-0.91,2.75c-0.28,0.93-0.8,1.89-1.71,2.22
	c-1.24,0.46-2.54-0.43-3.56-1.27c-1.31-1.07-2.62-2.14-3.93-3.21c-0.22-0.18-0.44-0.36-0.57-0.62c-0.15-0.31-0.13-0.69-0.08-1.03
	C60.14,24.06,64.72,21.86,68.62,21.43z"/>
<path class="st0" d="M88.56,46.59c0.01,0.34-0.01,0.72-0.25,0.97c-0.22,0.23-0.57,0.32-0.9,0.38c-1.31,0.27-2.64,0.44-3.98,0.5
	c-0.59,0.03-1.21,0.03-1.75-0.2c-0.47-0.2-0.82-0.57-1.24-0.84c-0.79-0.52-1.77-0.72-2.68-1.05c-0.91-0.33-1.82-0.88-2.09-1.73
	c-0.36-1.16,0.62-2.26,1.53-3.12c1.16-1.1,2.32-2.2,3.49-3.3c0.19-0.18,0.4-0.37,0.66-0.46c0.33-0.11,0.69-0.06,1.03,0.01
	C86.56,38.71,88.41,43.04,88.56,46.59z"/>
<path class="st0" d="M72.29,33.27c-0.35-0.3-0.71-0.66-0.77-1.12c-0.05-0.41,0.15-0.81,0.35-1.17c0.8-1.44,1.72-2.82,2.74-4.11
	c0.45-0.57,0.96-1.14,1.63-1.42c0.58-0.24,1.23-0.24,1.85-0.37c1.16-0.25,2.16-0.97,3.22-1.5s2.36-0.87,3.42-0.34
	c1.45,0.73,1.75,2.63,1.86,4.25c0.15,2.07,0.3,4.14,0.45,6.21c0.02,0.34,0.05,0.7-0.07,1.03c-0.15,0.4-0.5,0.69-0.86,0.94
	C81.77,38.62,75.95,36.37,72.29,33.27z"/>
<line class="st0" x1="11.09" y1="63.75" x2="156.02" y2="63.75"/>
<g>
	<rect x="3.25" y="63.11" class="st1" width="155.6" height="30.16"/>
	<rect x="3.25" y="63.11" class="st1" width="4.5" height="32.34"/>
	<path class="st1" d="M6.3,70.23l-3.56-0.94C1.72,69.01,1,68.08,1,67.02v-3.91h5.3V70.23z"/>
	<rect x="22.14" y="63.11" class="st1" width="4.5" height="32.34"/>
	<rect x="41.03" y="63.11" class="st1" width="4.5" height="32.34"/>
	<rect x="59.91" y="63.11" class="st1" width="4.5" height="32.34"/>
	<rect x="78.8" y="63.11" class="st1" width="4.5" height="32.34"/>
	<rect x="97.69" y="63.11" class="st1" width="4.5" height="32.34"/>
	<rect x="116.57" y="63.11" class="st1" width="4.5" height="32.34"/>
	<rect x="135.46" y="63.11" class="st1" width="4.5" height="32.34"/>
	<rect x="154.35" y="63.11" class="st1" width="4.5" height="32.34"/>
</g>
<g>
	<g>
		<polygon class="st2" points="117.35,82.27 116.93,82.8 116.92,82.8 116.92,82.27 116.45,82.27 116.45,83.82 116.92,83.82 
			116.92,83.36 117.06,83.21 117.44,83.82 118.03,83.82 117.38,82.87 117.94,82.27 		"/>
		<g>
			<path class="st2" d="M119.51,83.47c0.12,0,0.31-0.08,0.31-0.43c0-0.34-0.19-0.43-0.31-0.43c-0.12,0-0.31,0.08-0.31,0.43
				C119.2,83.39,119.39,83.47,119.51,83.47 M119.51,82.23c0.47,0,0.79,0.34,0.79,0.81c0,0.47-0.31,0.81-0.79,0.81
				c-0.47,0-0.79-0.34-0.79-0.81C118.73,82.57,119.04,82.23,119.51,82.23"/>
		</g>
		<polygon class="st2" points="122.09,82.27 122.09,83.1 122.09,83.1 121.64,82.27 121.15,82.27 121.15,83.82 121.6,83.82 
			121.6,82.97 121.61,82.97 122.08,83.82 122.55,83.82 122.55,82.27 		"/>
		<polygon class="st2" points="123.37,82.27 123.37,82.67 123.81,82.67 123.81,83.82 124.29,83.82 124.29,82.67 124.72,82.67 
			124.72,82.27 		"/>
		<polygon class="st2" points="125.55,82.27 125.55,83.82 126.85,83.82 126.85,83.42 126.02,83.42 126.02,83.23 126.75,83.23 
			126.75,82.86 126.02,82.86 126.02,82.67 126.83,82.67 126.83,82.27 		"/>
		<g>
			<path class="st2" d="M128.8,83.26c0,0.43-0.19,0.59-0.58,0.59c-0.39,0-0.57-0.22-0.57-0.56v-0.13h0.43v0.09
				c0,0.12,0,0.23,0.13,0.23c0.12,0,0.11-0.15,0.11-0.22v-1h0.48V83.26z"/>
		</g>
		<polygon class="st2" points="130.65,82.27 130.65,83.1 130.64,83.1 130.19,82.27 129.7,82.27 129.7,83.82 130.15,83.82 
			130.15,82.97 130.16,82.97 130.63,83.82 131.1,83.82 131.1,82.27 		"/>
		<polygon class="st2" points="132,82.27 132,83.82 133.3,83.82 133.3,83.42 132.47,83.42 132.47,83.23 133.21,83.23 133.21,82.86 
			132.47,82.86 132.47,82.67 133.28,82.67 133.28,82.27 		"/>
		<g>
			<path class="st2" d="M134.65,82.95h0.25c0.09,0,0.21-0.02,0.21-0.15c0-0.1-0.05-0.15-0.24-0.15h-0.22V82.95z M134.18,82.27h0.91
				c0.27,0,0.51,0.15,0.51,0.44c0,0.16-0.07,0.33-0.23,0.39c0.13,0.05,0.21,0.19,0.23,0.39c0.01,0.07,0.01,0.26,0.05,0.33h-0.48
				c-0.02-0.08-0.03-0.16-0.04-0.24c-0.01-0.15-0.03-0.3-0.21-0.3h-0.25v0.54h-0.48V82.27z"/>
		</g>
		<polygon class="st2" points="137.22,82.27 136.95,82.84 136.69,82.27 136.17,82.27 136.71,83.25 136.71,83.82 137.19,83.82 
			137.19,83.25 137.74,82.27 		"/>
		<g>
			<polygon class="st2" points="119.75,81.12 119.75,81.12 121.51,81.12 121.51,81.12 			"/>
			<polygon class="st2" points="142.46,70.81 127.9,72.55 142.46,70.81 			"/>
			<polygon class="st2" points="111.6,81.12 111.6,81.12 117.53,81.12 117.53,81.12 			"/>
			<polygon class="st2" points="116.99,73.85 114.37,77.33 116.99,73.85 			"/>
			<polygon class="st2" points="114.37,77.33 111.52,81.12 111.6,81.12 111.6,81.02 			"/>
			<polygon class="st2" points="140,77.6 143.51,70.69 143.51,70.69 142.46,70.81 143.45,70.81 			"/>
			<path class="st2" d="M140.74,72.59c0-0.08-0.08-0.09-0.14-0.09h-0.13v0.19h0.12C140.67,72.69,140.74,72.68,140.74,72.59z"/>
			<polygon class="st2" points="116.99,73.85 116.99,73.85 127.9,72.55 			"/>
			<path class="st2" d="M140.59,73.2c0.25,0,0.44-0.19,0.44-0.48c0-0.28-0.19-0.48-0.44-0.48c-0.25,0-0.44,0.2-0.44,0.48
				C140.15,72.98,140.32,73.2,140.59,73.2z M140.37,72.41h0.24c0.15,0,0.23,0.05,0.23,0.18c0,0.12-0.07,0.16-0.17,0.17l0.18,0.28
				h-0.12l-0.17-0.27h-0.1v0.27h-0.1V72.41z"/>
			<path class="st2" d="M116.38,79.29v-0.18h1.82v0.31c0,0.33,0.14,0.59,0.47,0.59c0.35,0,0.46-0.3,0.46-0.59
				c0-0.42-0.17-0.53-0.4-0.67c-0.25-0.14-0.59-0.26-0.93-0.44c-1.02-0.5-1.35-0.87-1.35-1.87c0-0.94,0.27-1.43,0.71-1.74
				c0.33-0.22,0.79-0.41,1.53-0.41c1.89,0,2.21,0.94,2.21,2.05h-1.76v-0.27c0-0.29-0.11-0.54-0.44-0.54c-0.29,0-0.43,0.23-0.43,0.51
				c0,1.34,2.79,0.64,2.79,3.04c0,1.15-0.4,1.79-1.31,2.04h1.76v-6.69h1.88v6.69h0.64v-6.69h4.03v1.52h-2.16v1.03h2.02v1.46h-2.02
				v1.16h2.24v1.52h1.62c-1.12-0.43-1.16-1.84-1.16-3.34c0-1.91,0.1-3.49,2.39-3.49c1.85,0,2.26,0.92,2.26,2.27h-1.76v-0.27
				c0-0.5-0.11-0.76-0.48-0.76c-0.45,0-0.48,0.41-0.48,0.82v2.76c0,0.41,0.04,0.9,0.49,0.9c0.45,0,0.53-0.35,0.53-0.84v-0.46h-0.53
				v-1.24h2.3v3.65h0.62v-6.69h1.88v5.18h2.04v1.52h0.37L140,77.6l3.45-6.79h-0.98l-14.56,1.74l-10.92,1.3l-2.62,3.48l-2.78,3.69
				v0.1h5.94C116.78,80.89,116.38,80.34,116.38,79.29z M140.59,72.14c0.3,0,0.56,0.23,0.56,0.58c0,0.35-0.26,0.58-0.56,0.58
				c-0.33,0-0.57-0.25-0.57-0.58C140.02,72.37,140.29,72.14,140.59,72.14z"/>
			<path class="st2" d="M140.48,72.78h0.1l0.17,0.27h0.12l-0.18-0.28c0.09-0.01,0.17-0.06,0.17-0.17c0-0.13-0.08-0.18-0.23-0.18
				h-0.24v0.64h0.1V72.78z M140.48,72.5h0.13c0.06,0,0.14,0.01,0.14,0.09c0,0.09-0.07,0.1-0.15,0.1h-0.12V72.5z"/>
			<path class="st2" d="M140.59,73.3c0.3,0,0.56-0.23,0.56-0.58c0-0.35-0.26-0.58-0.56-0.58c-0.31,0-0.57,0.23-0.57,0.58
				C140.02,73.05,140.26,73.3,140.59,73.3z M140.59,72.24c0.25,0,0.44,0.2,0.44,0.48c0,0.28-0.19,0.48-0.44,0.48
				c-0.27,0-0.44-0.21-0.44-0.48C140.15,72.44,140.34,72.24,140.59,72.24z"/>
		</g>
	</g>
</g>
<g>
	<path class="st3" d="M44.37,3.48c0.9-1,1.81-2,2.7-3.01c0.21-0.24,0.36-0.26,0.64-0.15c0.48,0.19,0.96,0.39,1.43,0.61
		c2.39,1.08,4.78,2.17,7.17,3.26c2.47,1.13,4.93,2.28,7.4,3.43c0.1,0.05,0.21,0.16,0.24,0.27c0.51,1.45,1.01,2.91,1.5,4.37
		c0.39,1.16,0.75,2.34,1.14,3.5c0.12,0.35,0.05,0.6-0.19,0.87c-1.78,1.97-3.55,3.95-5.33,5.92c-0.33,0.37-0.43,0.39-0.87,0.19
		c-1.77-0.8-3.54-1.61-5.31-2.42c-2.91-1.33-5.81-2.67-8.72-4.01c-0.59-0.27-1.17-0.55-1.76-0.81c-0.16-0.07-0.24-0.18-0.29-0.33
		c-0.53-1.57-1.07-3.13-1.59-4.7c-0.34-1.02-0.65-2.06-1-3.08c-0.13-0.38-0.07-0.65,0.2-0.94c0.9-0.97,1.77-1.96,2.65-2.94
		C44.38,3.48,44.38,3.48,44.37,3.48z M45.48,14.83c0.1,0.05,0.17,0.09,0.24,0.12c1.9,0.87,3.81,1.74,5.71,2.61
		c2.96,1.36,5.92,2.71,8.88,4.07c0.11,0.05,0.17,0.04,0.25-0.05c1.5-1.68,3-3.36,4.5-5.04c0.07-0.08,0.13-0.18,0.21-0.28
		c-0.53-0.25-1.03-0.49-1.53-0.72c-2.3-1.05-4.59-2.1-6.89-3.16c-2.1-0.96-4.21-1.92-6.31-2.89c-0.15-0.07-0.23-0.05-0.34,0.07
		c-1.29,1.44-2.58,2.87-3.87,4.31C46.05,14.19,45.78,14.5,45.48,14.83z M48.48,1.8c0.03,0.11,0.03,0.16,0.05,0.2
		c0.68,2.09,1.36,4.18,2.05,6.27c0.03,0.08,0.12,0.16,0.2,0.19c1.89,0.87,3.78,1.73,5.67,2.6c2.85,1.3,5.7,2.61,8.56,3.91
		c0.07,0.03,0.15,0.06,0.24,0.09c-0.01-0.07-0.01-0.1-0.02-0.12c-0.7-2.13-1.41-4.26-2.12-6.39c-0.02-0.07-0.1-0.14-0.17-0.17
		c-1.71-0.79-3.42-1.57-5.13-2.35c-2.63-1.2-5.27-2.4-7.9-3.6C49.46,2.23,48.99,2.02,48.48,1.8z M44.8,13.91
		c0.08-0.08,0.13-0.12,0.17-0.16c1.5-1.66,3-3.33,4.51-4.99c0.1-0.11,0.11-0.19,0.06-0.32c-0.62-1.86-1.24-3.72-1.85-5.57
		c-0.11-0.34-0.23-0.68-0.36-1.05c-0.13,0.13-0.23,0.23-0.33,0.33c-1.44,1.59-2.87,3.18-4.32,4.77c-0.12,0.13-0.14,0.24-0.09,0.41
		c0.57,1.69,1.13,3.38,1.69,5.07C44.45,12.88,44.61,13.38,44.8,13.91z"/>
	<path class="st3" d="M56.54,9.55c-0.19,0.25-0.75,0.23-0.87-0.17c-0.27-0.92-0.56-1.83-0.84-2.75c-0.03-0.09-0.05-0.19-0.06-0.29
		c-0.04-0.31,0.07-0.48,0.37-0.55c0.27-0.06,0.5,0.05,0.58,0.32c0.31,0.98,0.61,1.97,0.92,2.95C56.69,9.22,56.68,9.39,56.54,9.55z"
		/>
	<path class="st3" d="M60.96,8.57c0.21-0.24,0.58-0.22,0.75,0.05c0.09,0.15,0.16,0.32,0.21,0.48c0.27,0.87,0.54,1.74,0.79,2.61
		c0.11,0.37-0.14,0.66-0.51,0.65c-0.2-0.01-0.34-0.09-0.41-0.28c-0.32-1-0.63-2-0.94-3.01C60.81,8.89,60.83,8.72,60.96,8.57z"/>
	<path class="st3" d="M59.64,10.8c-0.31,0.34-0.75,0.28-0.88-0.06c-0.24-0.66-0.45-1.33-0.66-2C58,8.42,57.92,8.1,57.84,7.78
		c-0.09-0.36,0.01-0.57,0.28-0.66c0.33-0.1,0.52-0.02,0.65,0.35c0.22,0.62,0.42,1.25,0.61,1.88c0.11,0.34,0.21,0.69,0.29,1.05
		C59.7,10.55,59.65,10.72,59.64,10.8z"/>
	<path class="st3" d="M53.55,8.17c-0.28,0.31-0.77,0.25-0.87-0.06c-0.31-1-0.63-2-0.94-3c-0.1-0.32,0.03-0.55,0.29-0.64
		c0.27-0.09,0.53,0.02,0.64,0.33c0.24,0.68,0.45,1.37,0.67,2.06c0.09,0.3,0.18,0.61,0.24,0.93C53.61,7.93,53.56,8.08,53.55,8.17z"/>
</g>
<g>
	<path class="st3" d="M80.36,12.07c0.37-1.3,0.75-2.59,1.1-3.89c0.09-0.31,0.21-0.39,0.51-0.41c0.52-0.04,1.03-0.07,1.55-0.08
		c2.62-0.08,5.25-0.15,7.87-0.21c2.72-0.07,5.43-0.12,8.15-0.17c0.11,0,0.26,0.05,0.33,0.13c1.1,1.08,2.19,2.17,3.27,3.26
		c0.86,0.87,1.7,1.77,2.56,2.65c0.26,0.26,0.31,0.52,0.21,0.86c-0.74,2.55-1.46,5.11-2.19,7.66c-0.14,0.47-0.22,0.53-0.7,0.55
		c-1.94,0.06-3.89,0.11-5.83,0.16c-3.2,0.08-6.4,0.15-9.6,0.22c-0.65,0.01-1.29,0.02-1.94,0.04c-0.17,0.01-0.29-0.05-0.41-0.17
		c-1.16-1.18-2.33-2.34-3.49-3.52c-0.76-0.77-1.49-1.56-2.25-2.33c-0.28-0.28-0.34-0.55-0.23-0.93c0.38-1.26,0.73-2.54,1.09-3.81
		C80.37,12.07,80.37,12.07,80.36,12.07z M86.34,21.78c0.11,0,0.19,0,0.27,0c2.09-0.05,4.18-0.11,6.28-0.16
		c3.26-0.08,6.51-0.16,9.77-0.24c0.12,0,0.17-0.04,0.21-0.16c0.61-2.17,1.22-4.33,1.83-6.5c0.03-0.1,0.04-0.22,0.06-0.34
		c-0.59,0.01-1.14,0.01-1.69,0.03c-2.52,0.06-5.05,0.12-7.57,0.19c-2.31,0.06-4.62,0.12-6.94,0.17c-0.16,0-0.23,0.06-0.27,0.21
		c-0.52,1.86-1.06,3.72-1.59,5.57C86.57,20.96,86.46,21.36,86.34,21.78z M83.32,8.76c0.07,0.09,0.1,0.13,0.13,0.16
		c1.53,1.58,3.06,3.16,4.6,4.73c0.06,0.06,0.18,0.09,0.26,0.08c2.08-0.05,4.16-0.1,6.23-0.15c3.13-0.08,6.27-0.16,9.4-0.24
		c0.08,0,0.16-0.01,0.26-0.02c-0.04-0.06-0.05-0.08-0.07-0.1c-1.57-1.6-3.13-3.21-4.7-4.81c-0.05-0.05-0.15-0.08-0.22-0.08
		c-1.88,0.04-3.76,0.09-5.64,0.14c-2.89,0.08-5.79,0.16-8.68,0.24C84.38,8.71,83.88,8.74,83.32,8.76z M85.32,21.26
		c0.04-0.1,0.06-0.16,0.08-0.22c0.62-2.16,1.24-4.31,1.86-6.47c0.04-0.14,0.01-0.22-0.09-0.32c-1.37-1.4-2.74-2.8-4.11-4.19
		c-0.25-0.26-0.51-0.51-0.79-0.79c-0.06,0.18-0.11,0.31-0.15,0.44c-0.59,2.06-1.19,4.12-1.79,6.18c-0.05,0.17-0.02,0.28,0.1,0.41
		c1.25,1.27,2.5,2.54,3.74,3.81C84.56,20.49,84.92,20.86,85.32,21.26z"/>
	<path class="st3" d="M93.96,12.18c-0.06,0.31-0.58,0.53-0.86,0.22c-0.65-0.71-1.31-1.4-1.96-2.1c-0.07-0.07-0.13-0.15-0.18-0.24
		c-0.17-0.26-0.14-0.46,0.09-0.65c0.21-0.18,0.47-0.17,0.67,0.03c0.71,0.75,1.41,1.5,2.12,2.25C93.95,11.83,94.01,11.98,93.96,12.18
		z"/>
	<path class="st3" d="M97.5,9.36c0.09-0.31,0.42-0.45,0.69-0.28c0.15,0.09,0.28,0.21,0.41,0.34c0.62,0.66,1.25,1.32,1.86,1.99
		c0.26,0.28,0.17,0.65-0.17,0.8c-0.18,0.08-0.35,0.07-0.49-0.08c-0.72-0.76-1.44-1.53-2.16-2.29C97.5,9.72,97.45,9.55,97.5,9.36z"/>
	<path class="st3" d="M97.3,11.95c-0.13,0.44-0.55,0.58-0.81,0.33c-0.5-0.49-0.99-1-1.47-1.51c-0.23-0.24-0.45-0.49-0.66-0.75
		c-0.24-0.28-0.24-0.52-0.04-0.71c0.25-0.24,0.45-0.25,0.74,0.03c0.47,0.46,0.92,0.94,1.38,1.42c0.25,0.26,0.5,0.53,0.72,0.81
		C97.24,11.7,97.27,11.87,97.3,11.95z"/>
	<path class="st3" d="M90.67,12.26c-0.12,0.4-0.59,0.57-0.81,0.33c-0.71-0.77-1.45-1.52-2.16-2.29c-0.23-0.24-0.22-0.5-0.02-0.7
		c0.2-0.2,0.48-0.22,0.72,0.02c0.51,0.51,1.01,1.04,1.51,1.56c0.22,0.23,0.43,0.47,0.62,0.73C90.61,12.01,90.64,12.18,90.67,12.26z"
		/>
</g>
<g>
	<path class="st3" d="M131.41,56.02c0.42-1.28,0.86-2.56,1.27-3.84c0.1-0.31,0.23-0.38,0.52-0.39c0.52-0.02,1.04-0.02,1.55-0.02
		c2.62,0.04,5.25,0.07,7.87,0.12c2.72,0.05,5.43,0.11,8.15,0.18c0.11,0,0.25,0.06,0.33,0.15c1.05,1.13,2.09,2.26,3.13,3.4
		c0.82,0.91,1.62,1.84,2.44,2.75c0.25,0.27,0.29,0.53,0.17,0.87c-0.84,2.52-1.67,5.04-2.51,7.56c-0.16,0.47-0.24,0.53-0.72,0.52
		c-1.94-0.03-3.89-0.05-5.83-0.09c-3.2-0.06-6.4-0.12-9.6-0.18c-0.65-0.01-1.29-0.04-1.94-0.04c-0.17,0-0.29-0.06-0.4-0.19
		c-1.11-1.22-2.23-2.44-3.34-3.67c-0.72-0.8-1.42-1.62-2.15-2.42c-0.27-0.29-0.32-0.57-0.19-0.94c0.43-1.25,0.84-2.5,1.25-3.76
		C131.42,56.02,131.42,56.02,131.41,56.02z M136.97,65.97c0.11,0.01,0.19,0.01,0.27,0.01c2.09,0.04,4.19,0.07,6.28,0.11
		c3.26,0.06,6.51,0.12,9.77,0.18c0.12,0,0.18-0.03,0.21-0.15c0.7-2.14,1.4-4.28,2.1-6.42c0.03-0.1,0.05-0.21,0.07-0.34
		c-0.59-0.02-1.14-0.03-1.69-0.04c-2.53-0.05-5.05-0.09-7.58-0.13c-2.31-0.04-4.63-0.08-6.94-0.12c-0.16,0-0.23,0.05-0.28,0.2
		c-0.6,1.83-1.21,3.67-1.82,5.5C137.24,65.16,137.11,65.55,136.97,65.97z M134.5,52.83c0.07,0.09,0.09,0.13,0.13,0.17
		c1.46,1.64,2.93,3.29,4.39,4.92c0.06,0.06,0.17,0.09,0.26,0.1c2.08,0.04,4.16,0.08,6.23,0.11c3.14,0.05,6.27,0.1,9.41,0.15
		c0.08,0,0.16-0.01,0.26-0.01c-0.04-0.06-0.05-0.08-0.07-0.1c-1.5-1.67-2.99-3.34-4.5-5c-0.05-0.05-0.15-0.09-0.22-0.09
		c-1.88-0.04-3.76-0.07-5.64-0.1c-2.89-0.05-5.79-0.09-8.68-0.13C135.57,52.84,135.06,52.84,134.5,52.83z M135.98,65.41
		c0.04-0.1,0.07-0.16,0.09-0.22c0.71-2.13,1.42-4.26,2.13-6.38c0.05-0.13,0.02-0.22-0.07-0.32c-1.31-1.45-2.62-2.91-3.93-4.36
		c-0.24-0.27-0.48-0.53-0.75-0.82c-0.07,0.17-0.12,0.3-0.17,0.44c-0.68,2.03-1.36,4.07-2.05,6.1c-0.06,0.17-0.03,0.28,0.09,0.41
		c1.2,1.32,2.39,2.64,3.58,3.97C135.24,64.61,135.6,64.99,135.98,65.41z"/>
	<path class="st3" d="M144.99,56.7c-0.07,0.3-0.6,0.51-0.87,0.19c-0.62-0.73-1.25-1.45-1.87-2.18c-0.06-0.07-0.12-0.16-0.17-0.24
		c-0.16-0.27-0.12-0.47,0.12-0.65c0.22-0.17,0.48-0.15,0.66,0.06c0.68,0.78,1.35,1.56,2.02,2.33C145,56.35,145.05,56.5,144.99,56.7z
		"/>
	<path class="st3" d="M148.65,54.04c0.1-0.3,0.44-0.43,0.71-0.26c0.14,0.1,0.28,0.22,0.39,0.36c0.59,0.69,1.19,1.37,1.77,2.07
		c0.24,0.29,0.14,0.66-0.21,0.8c-0.18,0.07-0.35,0.06-0.49-0.1c-0.69-0.79-1.38-1.58-2.07-2.38
		C148.63,54.39,148.59,54.23,148.65,54.04z"/>
	<path class="st3" d="M148.33,56.61c-0.15,0.43-0.58,0.55-0.83,0.29c-0.48-0.51-0.94-1.04-1.41-1.57c-0.22-0.25-0.43-0.51-0.63-0.77
		c-0.22-0.29-0.22-0.53-0.01-0.71c0.26-0.23,0.47-0.23,0.74,0.06c0.45,0.48,0.88,0.98,1.32,1.48c0.24,0.27,0.47,0.55,0.68,0.84
		C148.29,56.36,148.31,56.54,148.33,56.61z"/>
	<path class="st3" d="M141.7,56.64c-0.13,0.39-0.61,0.54-0.82,0.29c-0.68-0.8-1.38-1.58-2.06-2.38c-0.22-0.25-0.19-0.51,0.01-0.7
		c0.21-0.19,0.49-0.2,0.72,0.05c0.49,0.53,0.97,1.08,1.44,1.62c0.21,0.24,0.41,0.49,0.59,0.75
		C141.65,56.39,141.67,56.56,141.7,56.64z"/>
</g>
<g>
	<path class="st3" d="M37.15,62.25c0.42,1.25,0.82,2.51,1.25,3.76c0.13,0.37,0.08,0.65-0.19,0.94c-0.73,0.79-1.43,1.62-2.15,2.42
		c-1.11,1.23-2.23,2.44-3.34,3.67c-0.11,0.12-0.23,0.19-0.4,0.19c-0.65,0.01-1.29,0.03-1.94,0.04c-3.2,0.06-6.4,0.13-9.6,0.18
		c-1.94,0.04-3.89,0.06-5.83,0.09c-0.48,0.01-0.57-0.05-0.72-0.52c-0.84-2.52-1.67-5.04-2.51-7.56c-0.11-0.34-0.07-0.6,0.17-0.87
		c0.82-0.91,1.62-1.84,2.44-2.75c1.03-1.14,2.08-2.27,3.13-3.4c0.08-0.08,0.22-0.14,0.33-0.15c2.72-0.06,5.43-0.13,8.15-0.18
		c2.62-0.05,5.25-0.08,7.87-0.12c0.52-0.01,1.04,0,1.55,0.02c0.3,0.01,0.43,0.09,0.52,0.39c0.41,1.28,0.84,2.56,1.27,3.84
		C37.16,62.24,37.15,62.25,37.15,62.25z M31.21,71c-0.61-1.83-1.22-3.67-1.82-5.5c-0.05-0.16-0.12-0.21-0.28-0.2
		c-2.31,0.04-4.62,0.08-6.94,0.12c-2.53,0.04-5.05,0.09-7.58,0.13c-0.55,0.01-1.1,0.03-1.69,0.04c0.03,0.13,0.04,0.24,0.07,0.34
		c0.7,2.14,1.4,4.28,2.1,6.42c0.04,0.12,0.09,0.15,0.21,0.15c3.26-0.06,6.51-0.12,9.77-0.18c2.09-0.04,4.18-0.07,6.28-0.11
		c0.08,0,0.15-0.01,0.27-0.01C31.46,71.78,31.33,71.39,31.21,71z M32.5,59.07c-2.89,0.04-5.79,0.09-8.68,0.13
		c-1.88,0.03-3.76,0.06-5.64,0.1c-0.08,0-0.17,0.04-0.22,0.09c-1.5,1.67-3,3.33-4.5,5c-0.02,0.02-0.03,0.05-0.07,0.1
		c0.1,0,0.18,0.01,0.26,0.01c3.14-0.05,6.27-0.1,9.41-0.15c2.08-0.03,4.16-0.07,6.23-0.11c0.09,0,0.2-0.03,0.26-0.1
		c1.47-1.64,2.93-3.28,4.39-4.92c0.03-0.04,0.06-0.08,0.13-0.17C33.51,59.06,33,59.06,32.5,59.07z M33.68,70.44
		c1.19-1.32,2.38-2.65,3.58-3.97c0.12-0.13,0.14-0.24,0.09-0.41c-0.69-2.03-1.36-4.06-2.05-6.1c-0.04-0.13-0.1-0.26-0.17-0.44
		c-0.27,0.29-0.51,0.55-0.75,0.82c-1.31,1.45-2.62,2.91-3.93,4.36c-0.09,0.1-0.12,0.19-0.07,0.32c0.71,2.13,1.42,4.25,2.13,6.38
		c0.02,0.06,0.05,0.12,0.09,0.22C32.98,71.22,33.33,70.83,33.68,70.44z"/>
	<path class="st3" d="M23.58,62.93c0.07,0.3,0.6,0.51,0.87,0.19c0.62-0.73,1.25-1.45,1.87-2.18c0.06-0.07,0.12-0.16,0.17-0.24
		c0.16-0.27,0.12-0.47-0.12-0.65c-0.22-0.17-0.48-0.15-0.66,0.06c-0.68,0.78-1.35,1.56-2.02,2.33
		C23.58,62.58,23.52,62.73,23.58,62.93z"/>
	<path class="st3" d="M19.92,60.27c-0.1-0.3-0.44-0.43-0.71-0.26c-0.14,0.1-0.28,0.22-0.39,0.36c-0.59,0.69-1.19,1.37-1.77,2.07
		c-0.24,0.29-0.14,0.66,0.21,0.8c0.18,0.07,0.35,0.06,0.49-0.1c0.69-0.79,1.38-1.58,2.07-2.38C19.94,60.62,19.99,60.45,19.92,60.27z
		"/>
	<path class="st3" d="M20.24,62.84c0.15,0.43,0.58,0.55,0.83,0.29c0.48-0.51,0.94-1.04,1.41-1.57c0.22-0.25,0.43-0.51,0.63-0.77
		c0.22-0.29,0.22-0.53,0.01-0.71c-0.26-0.23-0.47-0.23-0.74,0.06c-0.45,0.48-0.88,0.98-1.32,1.48c-0.24,0.27-0.47,0.55-0.68,0.84
		C20.29,62.59,20.27,62.76,20.24,62.84z"/>
	<path class="st3" d="M26.88,62.87c0.13,0.39,0.61,0.54,0.82,0.29c0.68-0.8,1.38-1.58,2.06-2.38c0.22-0.25,0.19-0.51-0.01-0.7
		c-0.21-0.19-0.49-0.2-0.72,0.05c-0.49,0.53-0.97,1.08-1.44,1.62c-0.21,0.24-0.41,0.49-0.59,0.75
		C26.92,62.62,26.9,62.78,26.88,62.87z"/>
</g>
<g>
	<path class="st3" d="M124.65,30.32c0.21,1.56,0.41,3.12,0.64,4.67c0.07,0.47-0.05,0.78-0.43,1.06c-1.03,0.77-2.03,1.58-3.05,2.36
		c-1.57,1.19-3.15,2.37-4.72,3.55c-0.16,0.12-0.31,0.17-0.51,0.13c-0.76-0.14-1.52-0.25-2.27-0.38c-3.76-0.63-7.51-1.27-11.27-1.9
		c-2.28-0.39-4.56-0.78-6.84-1.18c-0.57-0.1-0.65-0.18-0.73-0.77c-0.43-3.13-0.84-6.27-1.27-9.4c-0.06-0.42,0.05-0.72,0.39-0.98
		c1.16-0.88,2.3-1.8,3.47-2.68c1.46-1.11,2.93-2.2,4.41-3.29c0.11-0.08,0.28-0.12,0.42-0.1c3.19,0.52,6.38,1.05,9.57,1.59
		c3.08,0.52,6.16,1.06,9.24,1.6c0.61,0.11,1.21,0.23,1.81,0.36c0.34,0.08,0.48,0.19,0.53,0.57c0.2,1.59,0.42,3.18,0.64,4.78
		C124.66,30.31,124.65,30.32,124.65,30.32z M115.76,39.24c-0.31-2.28-0.62-4.56-0.92-6.84c-0.03-0.19-0.1-0.27-0.29-0.3
		c-2.71-0.46-5.43-0.93-8.14-1.39c-2.96-0.51-5.93-1.01-8.89-1.52c-0.65-0.11-1.3-0.21-1.99-0.32c0,0.16,0,0.29,0.01,0.42
		c0.35,2.66,0.7,5.31,1.05,7.97c0.02,0.14,0.08,0.2,0.22,0.22c3.82,0.65,7.64,1.3,11.47,1.95c2.46,0.42,4.91,0.84,7.37,1.26
		c0.09,0.02,0.18,0.03,0.32,0.04C115.89,40.21,115.83,39.73,115.76,39.24z M119.91,25.57c-3.4-0.59-6.79-1.18-10.19-1.76
		c-2.21-0.38-4.41-0.76-6.62-1.13c-0.09-0.01-0.21,0.01-0.28,0.06c-2.12,1.62-4.24,3.24-6.36,4.86c-0.03,0.02-0.05,0.05-0.1,0.11
		c0.12,0.03,0.21,0.06,0.3,0.07c3.68,0.63,7.36,1.26,11.04,1.9c2.44,0.42,4.88,0.84,7.32,1.25c0.1,0.02,0.25,0,0.33-0.05
		c2.08-1.59,4.15-3.19,6.23-4.79c0.05-0.04,0.09-0.08,0.18-0.17C121.1,25.79,120.5,25.67,119.91,25.57z M118.78,39.14
		c1.69-1.28,3.37-2.57,5.06-3.85c0.17-0.13,0.22-0.25,0.19-0.46c-0.36-2.53-0.7-5.06-1.05-7.58c-0.02-0.17-0.06-0.33-0.1-0.55
		c-0.38,0.28-0.72,0.54-1.06,0.79c-1.85,1.41-3.71,2.83-5.56,4.24c-0.13,0.1-0.18,0.19-0.16,0.36c0.37,2.64,0.72,5.29,1.09,7.94
		c0.01,0.07,0.03,0.14,0.06,0.27C117.79,39.89,118.29,39.52,118.78,39.14z"/>
	<path class="st3" d="M108.63,28.12c0.02,0.37,0.59,0.73,0.97,0.41c0.88-0.72,1.78-1.42,2.67-2.14c0.09-0.07,0.18-0.16,0.25-0.25
		c0.25-0.28,0.25-0.52,0.01-0.79c-0.22-0.24-0.53-0.28-0.79-0.08c-0.96,0.76-1.92,1.52-2.88,2.29
		C108.7,27.71,108.6,27.87,108.63,28.12z"/>
	<path class="st3" d="M104.94,24.2c-0.05-0.38-0.42-0.61-0.77-0.45c-0.19,0.08-0.37,0.2-0.54,0.33c-0.85,0.67-1.69,1.35-2.53,2.03
		c-0.35,0.29-0.31,0.74,0.07,0.98c0.2,0.13,0.4,0.14,0.59-0.01c0.98-0.77,1.96-1.55,2.94-2.33
		C104.88,24.61,104.97,24.43,104.94,24.2z"/>
	<path class="st3" d="M104.74,27.28c0.08,0.54,0.55,0.78,0.9,0.53c0.68-0.49,1.33-1.01,1.99-1.52c0.31-0.24,0.61-0.5,0.91-0.77
		c0.33-0.29,0.38-0.57,0.17-0.83c-0.26-0.32-0.49-0.37-0.88-0.09c-0.63,0.46-1.25,0.95-1.87,1.44c-0.34,0.27-0.67,0.54-0.98,0.84
		C104.85,26.99,104.78,27.19,104.74,27.28z"/>
	<path class="st3" d="M112.5,28.77c0.07,0.49,0.59,0.77,0.9,0.52c0.97-0.78,1.96-1.54,2.94-2.33c0.31-0.25,0.34-0.56,0.14-0.82
		c-0.2-0.27-0.53-0.34-0.85-0.1c-0.69,0.51-1.37,1.05-2.04,1.58c-0.3,0.24-0.59,0.48-0.86,0.75C112.6,28.5,112.54,28.68,112.5,28.77
		z"/>
</g>
<g>
	<path class="st3" d="M119.2,40.95c1.46-0.08,2.91-0.15,4.37-0.25c0.35-0.02,0.47,0.08,0.6,0.37c0.22,0.51,0.43,1.03,0.63,1.56
		c1,2.65,2.01,5.31,3,7.97c1.03,2.75,2.04,5.51,3.05,8.27c0.04,0.11,0.04,0.28-0.02,0.39c-0.72,1.5-1.44,3-2.18,4.49
		c-0.59,1.19-1.21,2.36-1.8,3.55c-0.18,0.35-0.42,0.5-0.81,0.52c-2.87,0.15-5.73,0.31-8.6,0.47c-0.53,0.03-0.62-0.03-0.81-0.52
		c-0.74-1.97-1.48-3.93-2.22-5.9c-1.21-3.24-2.41-6.48-3.62-9.73c-0.24-0.65-0.47-1.31-0.72-1.96c-0.07-0.17-0.05-0.32,0.03-0.48
		c0.79-1.6,1.57-3.21,2.37-4.81c0.52-1.04,1.07-2.07,1.58-3.12c0.19-0.39,0.44-0.55,0.87-0.56c1.43-0.06,2.85-0.15,4.28-0.23
		C119.2,40.97,119.2,40.96,119.2,40.95z M111.39,50.49c0.04,0.12,0.06,0.2,0.09,0.27c0.79,2.12,1.59,4.24,2.38,6.36
		c1.23,3.3,2.46,6.6,3.69,9.9c0.05,0.12,0.1,0.16,0.23,0.16c2.43-0.14,4.86-0.28,7.29-0.42c0.12-0.01,0.23-0.04,0.37-0.06
		c-0.22-0.6-0.42-1.16-0.62-1.72c-0.95-2.56-1.91-5.12-2.87-7.67c-0.88-2.34-1.76-4.68-2.63-7.03c-0.06-0.17-0.14-0.22-0.32-0.21
		c-2.08,0.12-4.17,0.23-6.25,0.35C112.31,50.44,111.86,50.47,111.39,50.49z M123.63,42.8c-0.06,0.1-0.09,0.15-0.12,0.19
		c-1.07,2.12-2.15,4.24-3.21,6.37c-0.04,0.08-0.03,0.21,0.01,0.3c0.78,2.11,1.57,4.21,2.36,6.32c1.19,3.17,2.38,6.35,3.57,9.52
		c0.03,0.08,0.07,0.16,0.12,0.26c0.04-0.06,0.06-0.08,0.08-0.11c1.09-2.17,2.17-4.34,3.25-6.51c0.03-0.07,0.03-0.18,0-0.26
		c-0.71-1.91-1.42-3.81-2.13-5.71c-1.1-2.93-2.2-5.86-3.31-8.79C124.05,43.88,123.84,43.37,123.63,42.8z M111.56,49.27
		c0.12,0,0.19,0.01,0.25,0c2.42-0.13,4.84-0.26,7.26-0.38c0.15-0.01,0.23-0.07,0.29-0.2c0.94-1.9,1.89-3.79,2.83-5.68
		c0.17-0.35,0.34-0.7,0.53-1.08c-0.2,0-0.35,0-0.5,0.01c-2.31,0.12-4.63,0.24-6.94,0.36c-0.19,0.01-0.29,0.08-0.38,0.25
		c-0.85,1.73-1.71,3.45-2.57,5.17C112.08,48.21,111.83,48.72,111.56,49.27z"/>
	<path class="st3" d="M123.89,54.89c-0.33,0.04-0.75-0.4-0.53-0.8c0.49-0.91,0.97-1.83,1.45-2.75c0.05-0.09,0.11-0.18,0.18-0.27
		c0.21-0.27,0.42-0.31,0.7-0.14c0.25,0.15,0.34,0.42,0.2,0.69c-0.51,0.99-1.03,1.97-1.55,2.96
		C124.25,54.76,124.11,54.87,123.89,54.89z"/>
	<path class="st3" d="M128.02,57.51c0.34-0.02,0.61,0.27,0.54,0.61c-0.04,0.18-0.12,0.37-0.21,0.53c-0.45,0.87-0.91,1.74-1.38,2.6
		c-0.2,0.36-0.61,0.4-0.88,0.11c-0.15-0.15-0.2-0.33-0.09-0.53c0.52-1.01,1.05-2.01,1.58-3.02
		C127.66,57.64,127.8,57.52,128.02,57.51z"/>
	<path class="st3" d="M125.3,58.22c-0.49,0.02-0.79-0.36-0.62-0.72c0.32-0.69,0.67-1.36,1.02-2.04c0.16-0.32,0.35-0.63,0.53-0.94
		c0.2-0.34,0.44-0.43,0.71-0.29c0.33,0.18,0.41,0.38,0.23,0.77c-0.3,0.64-0.64,1.28-0.96,1.91c-0.18,0.35-0.37,0.69-0.58,1.02
		C125.54,58.07,125.37,58.16,125.3,58.22z"/>
	<path class="st3" d="M122.65,51.55c-0.45,0.02-0.78-0.4-0.62-0.71c0.53-1,1.04-2.01,1.58-3.02c0.17-0.32,0.44-0.4,0.71-0.27
		c0.28,0.13,0.39,0.42,0.24,0.74c-0.34,0.7-0.7,1.4-1.06,2.09c-0.16,0.31-0.33,0.61-0.52,0.89
		C122.88,51.41,122.72,51.49,122.65,51.55z"/>
</g>
<g>
	<path class="st3" d="M46.82,45.63c1.43-0.03,2.86-0.05,4.28-0.1c0.43-0.01,0.69,0.13,0.91,0.5c0.59,1.01,1.22,1.99,1.81,2.99
		c0.91,1.54,1.81,3.08,2.72,4.62c0.09,0.16,0.12,0.3,0.06,0.48c-0.2,0.67-0.38,1.34-0.57,2.01c-0.96,3.32-1.91,6.65-2.87,9.97
		c-0.58,2.02-1.17,4.04-1.77,6.05c-0.15,0.5-0.23,0.57-0.77,0.58c-2.87,0.06-5.74,0.12-8.61,0.18c-0.39,0.01-0.64-0.12-0.84-0.46
		c-0.68-1.14-1.39-2.26-2.07-3.4c-0.85-1.43-1.68-2.87-2.52-4.32c-0.06-0.1-0.08-0.27-0.05-0.39c0.8-2.83,1.6-5.65,2.42-8.48
		c0.79-2.73,1.59-5.45,2.39-8.17c0.16-0.54,0.33-1.07,0.51-1.6c0.1-0.3,0.22-0.41,0.57-0.42c1.46-0.02,2.92-0.05,4.37-0.08
		C46.82,45.62,46.82,45.63,46.82,45.63z M53.96,54.57c-2.09,0.04-4.17,0.09-6.26,0.13c-0.18,0-0.25,0.06-0.3,0.23
		c-0.69,2.4-1.39,4.8-2.09,7.2c-0.76,2.62-1.52,5.25-2.28,7.87c-0.17,0.57-0.32,1.15-0.49,1.76c0.14,0.01,0.26,0.03,0.38,0.03
		c2.43-0.04,4.87-0.09,7.3-0.13c0.13,0,0.18-0.05,0.22-0.17c0.97-3.38,1.95-6.76,2.93-10.15c0.63-2.17,1.26-4.35,1.89-6.52
		c0.02-0.08,0.04-0.16,0.07-0.28C54.85,54.55,54.41,54.56,53.96,54.57z M42.05,49.43c-0.88,3-1.76,6.01-2.63,9.01
		c-0.57,1.95-1.13,3.9-1.7,5.86c-0.02,0.08-0.02,0.19,0.02,0.26c1.24,2.08,2.49,4.16,3.74,6.24c0.02,0.03,0.04,0.05,0.09,0.1
		c0.04-0.11,0.07-0.19,0.1-0.27c0.95-3.25,1.89-6.51,2.84-9.77c0.63-2.16,1.25-4.32,1.87-6.48c0.03-0.09,0.03-0.22-0.02-0.3
		c-1.22-2.04-2.45-4.07-3.69-6.11c-0.03-0.04-0.06-0.09-0.13-0.18C42.37,48.37,42.21,48.9,42.05,49.43z M54.18,51.83
		c-0.99-1.65-1.98-3.3-2.96-4.96c-0.1-0.17-0.2-0.23-0.4-0.22c-2.32,0.06-4.63,0.11-6.95,0.17c-0.15,0-0.3,0.02-0.5,0.03
		c0.22,0.37,0.41,0.71,0.61,1.04c1.08,1.82,2.17,3.63,3.25,5.45c0.08,0.13,0.16,0.18,0.31,0.18c2.42-0.06,4.85-0.11,7.27-0.17
		c0.07,0,0.13-0.01,0.25-0.02C54.76,52.8,54.47,52.32,54.18,51.83z"/>
	<path class="st3" d="M43.2,59.87c0.34,0.02,0.72-0.46,0.47-0.84c-0.56-0.87-1.1-1.75-1.65-2.63c-0.06-0.09-0.13-0.17-0.2-0.25
		c-0.23-0.25-0.44-0.28-0.71-0.09c-0.24,0.17-0.31,0.45-0.15,0.71c0.59,0.95,1.18,1.89,1.77,2.83
		C42.83,59.76,42.97,59.87,43.2,59.87z"/>
	<path class="st3" d="M39.28,62.8c-0.34,0.01-0.59,0.32-0.49,0.65c0.05,0.18,0.14,0.36,0.24,0.52c0.52,0.83,1.04,1.67,1.58,2.49
		c0.22,0.35,0.64,0.35,0.89,0.04c0.13-0.17,0.17-0.35,0.05-0.53c-0.6-0.97-1.2-1.93-1.8-2.89C39.65,62.89,39.49,62.79,39.28,62.8z"
		/>
	<path class="st3" d="M42.04,63.29c0.49-0.02,0.76-0.42,0.57-0.76c-0.37-0.66-0.77-1.31-1.17-1.95c-0.19-0.31-0.39-0.6-0.6-0.9
		c-0.23-0.32-0.47-0.4-0.73-0.23c-0.32,0.2-0.38,0.41-0.17,0.78c0.35,0.62,0.73,1.22,1.11,1.83c0.21,0.33,0.42,0.66,0.65,0.97
		C41.79,63.16,41.97,63.24,42.04,63.29z"/>
	<path class="st3" d="M44.18,56.44c0.45-0.01,0.75-0.46,0.56-0.76c-0.61-0.96-1.19-1.93-1.8-2.89c-0.19-0.3-0.47-0.36-0.73-0.21
		c-0.27,0.15-0.36,0.45-0.18,0.76c0.39,0.68,0.8,1.34,1.22,2c0.18,0.29,0.37,0.58,0.59,0.85C43.94,56.32,44.11,56.39,44.18,56.44z"
		/>
</g>
</svg>
