<?xml version="1.0" encoding="utf-8"?>
<!-- Generator: Adobe Illustrator 26.1.0, SVG Export Plug-In . SVG Version: 6.00 Build 0)  -->
<svg version="1.1" id="Layer_1" xmlns="http://www.w3.org/2000/svg" xmlns:xlink="http://www.w3.org/1999/xlink" x="0px" y="0px"
	 viewBox="0 0 159.85 103.09" style="enable-background:new 0 0 159.85 103.09;" xml:space="preserve">
<style type="text/css">
	.st0{fill:none;stroke:#3C3C3B;stroke-width:2.1823;stroke-linecap:round;stroke-miterlimit:10;}
	.st1{fill:#3C3C3B;stroke:#3C3C3B;stroke-width:2;stroke-linecap:round;stroke-linejoin:round;stroke-miterlimit:10;}
	.st2{fill:#FFFFFF;}
	.st3{fill:none;stroke:#3C3C3B;stroke-width:2.3836;stroke-linecap:round;stroke-linejoin:round;stroke-miterlimit:10;}
	.st4{fill:none;stroke:#3C3C3B;stroke-width:2.425;stroke-linecap:round;stroke-linejoin:round;stroke-miterlimit:10;}
</style>
<path class="st0" d="M127.31,65.33l2.25,2.54c1.93,2.18,1.73,5.51-0.45,7.45l0,0c-2.18,1.93-5.51,1.73-7.45-0.45l-2.25-2.54
	c-1.93-2.18-1.73-5.51,0.45-7.45l0,0C122.04,62.94,125.37,63.14,127.31,65.33z"/>
<path class="st0" d="M149.66,62.24c0.38-0.04,0.79-0.05,1.09,0.17c0.27,0.2,0.4,0.54,0.5,0.86c0.41,1.28,0.72,2.6,0.91,3.93
	c0.09,0.59,0.15,1.21-0.07,1.76c-0.18,0.48-0.55,0.87-0.81,1.31c-0.5,0.83-0.63,1.82-0.91,2.75c-0.28,0.93-0.8,1.89-1.71,2.22
	c-1.24,0.46-2.54-0.43-3.56-1.27c-1.31-1.07-2.62-2.14-3.93-3.21c-0.22-0.18-0.44-0.36-0.57-0.62c-0.15-0.31-0.13-0.69-0.08-1.03
	C141.18,64.87,145.77,62.67,149.66,62.24z"/>
<path class="st0" d="M19.52,70.39H35c1.08,0,1.96-0.88,1.96-1.96v-0.61c0-1.08-0.88-1.96-1.96-1.96H19.52
	c-1.08,0-1.96,0.88-1.96,1.96v0.61C17.56,69.52,18.44,70.39,19.52,70.39z"/>
<line class="st0" x1="11.09" y1="70.39" x2="156.02" y2="70.39"/>
<g>
	
		<ellipse transform="matrix(0.6058 -0.7956 0.7956 0.6058 14.7147 95.8967)" class="st0" cx="104.13" cy="33.1" rx="10.02" ry="3.46"/>
	<path class="st0" d="M98.83,41.67l36.06,27.46c1.52,1.16,5.47-1.47,8.82-5.88s4.84-8.91,3.32-10.07L110.2,25.13"/>
	<path class="st0" d="M110.75,30.51c3.54,1.72,5.08,6.08,8.43,8.13c1.49,0.91,3.24,1.3,4.82,2.04c3.77,1.76,6.34,5.37,9.76,7.74
		c1.5,1.04,3.19,1.87,4.43,3.21c0.52,0.56,0.97,1.21,1.62,1.61c0.68,0.42,1.5,0.51,2.25,0.79c1.71,0.64,2.9,2.18,3.92,3.7"/>
	<path class="st0" d="M106.94,35.64c3.25,2.42,6.3,5.1,9.11,8.01c0.93,0.96,1.85,1.96,3.03,2.59c0.85,0.45,1.82,0.7,2.51,1.36
		c0.66,0.64,0.99,1.6,1.76,2.1c0.62,0.41,1.41,0.44,2.13,0.66c1.57,0.48,2.67,1.86,4.07,2.73c1.12,0.7,2.43,1.06,3.55,1.75
		c0.95,0.59,1.76,1.41,2.34,2.37c0.49,0.82,0.83,1.76,1.57,2.35c0.45,0.36,1.01,0.56,1.54,0.79c1.87,0.83,3.49,2.21,4.62,3.92"/>
	<path class="st0" d="M102.39,39.87c5.58,3.28,9.43,9.38,15.59,11.33c0.87,0.28,1.78,0.47,2.58,0.91c1.01,0.56,1.77,1.48,2.63,2.25
		c1.56,1.38,3.48,2.28,5.28,3.32c4.18,2.43,7.82,5.78,10.6,9.74c-0.04-0.19-0.08-0.38-0.13-0.57"/>
</g>
<g>
	
		<ellipse transform="matrix(0.3795 -0.9252 0.9252 0.3795 -51.084 87.5377)" class="st0" cx="39.72" cy="81.85" rx="3.17" ry="9.19"/>
	<path class="st0" d="M31.56,77.54l15.77-38.45c0.66-1.62,5.01-1.37,9.7,0.55s7.96,4.8,7.3,6.42L48.22,85.34"/>
	<path class="st0" d="M46.16,80.83c2-3,1.19-7.16,2.89-10.34c0.76-1.41,1.96-2.53,2.86-3.85c2.17-3.15,2.52-7.18,4.12-10.65
		c0.7-1.52,1.65-2.96,2.02-4.59c0.15-0.68,0.2-1.41,0.53-2.03c0.34-0.65,0.95-1.1,1.41-1.67c1.06-1.3,1.28-3.07,1.38-4.74"/>
	<path class="st0" d="M40.77,78.54c1.44-3.42,2.61-6.96,3.48-10.56c0.29-1.19,0.55-2.41,1.2-3.45c0.46-0.75,1.12-1.4,1.35-2.24
		c0.23-0.81,0.04-1.72,0.42-2.48c0.3-0.61,0.92-1,1.38-1.51c1.01-1.11,1.25-2.71,1.95-4.05c0.56-1.07,1.43-1.96,1.99-3.03
		c0.48-0.91,0.74-1.93,0.75-2.96c0.01-0.87-0.16-1.77,0.15-2.59c0.19-0.5,0.54-0.91,0.85-1.34c1.09-1.52,1.74-2.65,1.83-4.53"/>
	<path class="st0" d="M35.2,77.31c2.89-5.18,3.1-11.79,7.07-16.2c0.56-0.62,1.19-1.2,1.62-1.92c0.54-0.91,0.71-1.99,1.04-3
		c0.59-1.82,1.7-3.42,2.63-5.08c2.18-3.86,3.36-6.82,3.72-11.24c0.05,0.17,0.25-1.04,0.31-0.87"/>
</g>
<g>
	
		<ellipse transform="matrix(4.321597e-03 -1 1 4.321597e-03 17.1778 152.2907)" class="st0" cx="85.06" cy="67.52" rx="10.18" ry="3.51"/>
	<path class="st0" d="M84.12,57.34l-20.51-0.2c-1.94-0.01-3.53,4.54-3.56,10.16s1.53,10.18,3.47,10.19l21.5,0.2"/>
	<path class="st0" d="M60.66,71.86c-0.03,0.12,0.07,0.25,0.18,0.3s0.25,0.04,0.38,0.03c0.46-0.03,0.94-0.07,1.38-0.22
		c0.14-0.05,0.28-0.11,0.43-0.11c0.12,0,0.23,0.03,0.34,0.07c1.47,0.47,3.13,0.74,4.67,0.42c0.69-0.14,1.36-0.41,2.07-0.5
		c0.8-0.1,1.6,0.05,2.39,0.16c1.34,0.19,2.71,0.29,4.04,0.02c0.7-0.14,1.38-0.39,2.09-0.51c0.47-0.08,1.04-0.22,1.52-0.13
		c0.44,0.08,0.76,0.44,1.22,0.09"/>
	<path class="st0" d="M60.11,66.93c0.31,0.43,0.89,0.63,1.39,0.49c0.15-0.04,0.29-0.11,0.45-0.14c0.44-0.09,0.94,0.15,1.38,0.2
		c0.61,0.07,1.01-0.04,1.54-0.34c0.96-0.53,1.89-0.45,2.98-0.58c1.84-0.22,3.77-0.63,5.51,0.03c0.39,0.15,0.77,0.35,1.19,0.36
		c0.47,0.01,0.9-0.23,1.36-0.3c0.77-0.13,1.54,0.2,2.32,0.21c1.07,0.02,2.09-0.55,3.17-0.52c0.11,0,0.22,0.02,0.3,0.09
		c0.07,0.08,0.06,0.24-0.05,0.26"/>
	<path class="st0" d="M81.4,62.36c-1.74-0.24-3.5-0.32-5.25-0.26c-1.82,0.07-3.64,0.29-5.46,0.23c-1.63-0.06-3.23-0.35-4.84-0.59
		c-0.88-0.13-1.76-0.14-2.65-0.17c-0.49-0.02-0.97-0.03-1.46-0.1c-0.38-0.05-0.75-0.13-1.12-0.24"/>
</g>
<g>
	
		<ellipse transform="matrix(0.5813 -0.8137 0.8137 0.5813 28.262 70.2435)" class="st0" cx="82.38" cy="7.66" rx="3.51" ry="10.18"/>
	<path class="st0" d="M90.09,14.38l-9.12,12.38c-1.13,1.58-5.75,0.21-10.32-3.06s-7.37-7.19-6.24-8.77L74.1,1.75"/>
	<path class="st0" d="M66.67,20.78c0.76-0.65,1.52-1.29,2.27-1.94c0.16-0.14,0.33-0.28,0.46-0.44c0.19-0.23,0.31-0.5,0.45-0.76
		c1.65-3.13,4.97-5.02,6.52-8.25c0.19-0.4,0.09-0.87,0.64-1.04"/>
	<path class="st0" d="M70.98,23.87c-0.33-0.97,0.72-1.17,1.24-1.75c0.75-0.84,1.11-1.98,1.83-2.85c0.79-0.96,1.93-1.6,2.61-2.64
		c0.35-0.53,0.57-1.15,0.96-1.65c0.62-0.79,1.6-1.15,2.26-1.89c0.46-0.52,0.92-1.19,1.32-1.77c0.06-0.09,0.12-0.19,0.1-0.3
		c-0.02-0.1-0.16-0.18-0.24-0.11"/>
	<path class="st0" d="M84.42,13.65c-0.82,1.55,0.94-1.35-0.14,0.03c-0.48,0.62-1.18,1.23-1.53,1.93c-0.27,0.55-0.36,1.27-0.59,1.85
		c-0.51,1.29-1.19,2.56-2.37,3.36c-0.43,0.29-0.93,0.53-1.17,0.99c-0.15,0.3-0.17,0.66-0.28,0.98c-0.18,0.51-0.61,0.91-0.7,1.44
		c-0.05,0.3,0,0.62-0.14,0.89c-0.28,0.54-1.26,0.65-1.23,1.27c-0.17-0.15-0.27-0.38-0.25-0.6"/>
</g>
<g>
	<rect x="3.25" y="69.75" class="st1" width="155.6" height="30.16"/>
	<rect x="3.25" y="69.75" class="st1" width="4.5" height="32.34"/>
	<path class="st1" d="M6.3,76.86l-3.56-0.94C1.72,75.65,1,74.72,1,73.65v-3.91h5.3V76.86z"/>
	<rect x="22.14" y="69.75" class="st1" width="4.5" height="32.34"/>
	<rect x="41.03" y="69.75" class="st1" width="4.5" height="32.34"/>
	<rect x="59.91" y="69.75" class="st1" width="4.5" height="32.34"/>
	<rect x="78.8" y="69.75" class="st1" width="4.5" height="32.34"/>
	<rect x="97.69" y="69.75" class="st1" width="4.5" height="32.34"/>
	<rect x="116.57" y="69.75" class="st1" width="4.5" height="32.34"/>
	<rect x="135.46" y="69.75" class="st1" width="4.5" height="32.34"/>
	<rect x="154.35" y="69.75" class="st1" width="4.5" height="32.34"/>
</g>
<g>
	<g>
		<polygon class="st2" points="117.35,88.91 116.93,89.44 116.92,89.44 116.92,88.91 116.45,88.91 116.45,90.45 116.92,90.45 
			116.92,90 117.06,89.85 117.44,90.45 118.03,90.45 117.38,89.51 117.94,88.91 		"/>
		<g>
			<path class="st2" d="M119.51,90.1c0.12,0,0.31-0.08,0.31-0.43c0-0.34-0.19-0.43-0.31-0.43c-0.12,0-0.31,0.08-0.31,0.43
				C119.2,90.02,119.39,90.1,119.51,90.1 M119.51,88.87c0.47,0,0.79,0.34,0.79,0.81c0,0.47-0.31,0.81-0.79,0.81
				c-0.47,0-0.79-0.34-0.79-0.81C118.73,89.21,119.04,88.87,119.51,88.87"/>
		</g>
		<polygon class="st2" points="122.09,88.91 122.09,89.73 122.09,89.73 121.64,88.91 121.15,88.91 121.15,90.45 121.6,90.45 
			121.6,89.61 121.61,89.61 122.08,90.45 122.55,90.45 122.55,88.91 		"/>
		<polygon class="st2" points="123.37,88.91 123.37,89.3 123.81,89.3 123.81,90.45 124.29,90.45 124.29,89.3 124.72,89.3 
			124.72,88.91 		"/>
		<polygon class="st2" points="125.55,88.91 125.55,90.45 126.85,90.45 126.85,90.06 126.02,90.06 126.02,89.86 126.75,89.86 
			126.75,89.5 126.02,89.5 126.02,89.3 126.83,89.3 126.83,88.91 		"/>
		<g>
			<path class="st2" d="M128.8,89.9c0,0.43-0.19,0.59-0.58,0.59c-0.39,0-0.57-0.22-0.57-0.56V89.8h0.43v0.09
				c0,0.12,0,0.23,0.13,0.23c0.12,0,0.11-0.15,0.11-0.22v-1h0.48V89.9z"/>
		</g>
		<polygon class="st2" points="130.65,88.91 130.65,89.73 130.64,89.73 130.19,88.91 129.7,88.91 129.7,90.45 130.15,90.45 
			130.15,89.61 130.16,89.61 130.63,90.45 131.1,90.45 131.1,88.91 		"/>
		<polygon class="st2" points="132,88.91 132,90.45 133.3,90.45 133.3,90.06 132.47,90.06 132.47,89.86 133.21,89.86 133.21,89.5 
			132.47,89.5 132.47,89.3 133.28,89.3 133.28,88.91 		"/>
		<g>
			<path class="st2" d="M134.65,89.58h0.25c0.09,0,0.21-0.02,0.21-0.15c0-0.1-0.05-0.15-0.24-0.15h-0.22V89.58z M134.18,88.91h0.91
				c0.27,0,0.51,0.15,0.51,0.44c0,0.16-0.07,0.33-0.23,0.39c0.13,0.05,0.21,0.19,0.23,0.39c0.01,0.07,0.01,0.26,0.05,0.33h-0.48
				c-0.02-0.08-0.03-0.16-0.04-0.24c-0.01-0.15-0.03-0.3-0.21-0.3h-0.25v0.54h-0.48V88.91z"/>
		</g>
		<polygon class="st2" points="137.22,88.91 136.95,89.48 136.69,88.91 136.17,88.91 136.71,89.88 136.71,90.45 137.19,90.45 
			137.19,89.88 137.74,88.91 		"/>
		<g>
			<polygon class="st2" points="119.75,87.76 119.75,87.76 121.51,87.76 121.51,87.76 			"/>
			<polygon class="st2" points="142.46,77.45 127.9,79.19 142.46,77.45 			"/>
			<polygon class="st2" points="111.6,87.76 111.6,87.76 117.53,87.76 117.53,87.76 			"/>
			<polygon class="st2" points="116.99,80.49 114.37,83.97 116.99,80.49 			"/>
			<polygon class="st2" points="114.37,83.97 111.52,87.76 111.6,87.76 111.6,87.65 			"/>
			<polygon class="st2" points="140,84.24 143.51,77.32 143.51,77.32 142.46,77.45 143.45,77.45 			"/>
			<path class="st2" d="M140.74,79.22c0-0.08-0.08-0.09-0.14-0.09h-0.13v0.19h0.12C140.67,79.32,140.74,79.32,140.74,79.22z"/>
			<polygon class="st2" points="116.99,80.49 116.99,80.49 127.9,79.19 			"/>
			<path class="st2" d="M140.59,79.83c0.25,0,0.44-0.19,0.44-0.48c0-0.28-0.19-0.48-0.44-0.48c-0.25,0-0.44,0.2-0.44,0.48
				C140.15,79.62,140.32,79.83,140.59,79.83z M140.37,79.05h0.24c0.15,0,0.23,0.05,0.23,0.18c0,0.12-0.07,0.16-0.17,0.17l0.18,0.28
				h-0.12l-0.17-0.27h-0.1v0.27h-0.1V79.05z"/>
			<path class="st2" d="M116.38,85.93v-0.18h1.82v0.31c0,0.33,0.14,0.59,0.47,0.59c0.35,0,0.46-0.3,0.46-0.59
				c0-0.42-0.17-0.53-0.4-0.67c-0.25-0.14-0.59-0.26-0.93-0.44c-1.02-0.5-1.35-0.87-1.35-1.87c0-0.94,0.27-1.43,0.71-1.74
				c0.33-0.22,0.79-0.41,1.53-0.41c1.89,0,2.21,0.94,2.21,2.05h-1.76v-0.27c0-0.29-0.11-0.54-0.44-0.54c-0.29,0-0.43,0.23-0.43,0.51
				c0,1.34,2.79,0.64,2.79,3.04c0,1.15-0.4,1.79-1.31,2.04h1.76v-6.69h1.88v6.69h0.64v-6.69h4.03v1.52h-2.16v1.03h2.02v1.46h-2.02
				v1.16h2.24v1.52h1.62c-1.12-0.43-1.16-1.84-1.16-3.34c0-1.91,0.1-3.49,2.39-3.49c1.85,0,2.26,0.92,2.26,2.27h-1.76v-0.27
				c0-0.5-0.11-0.76-0.48-0.76c-0.45,0-0.48,0.41-0.48,0.82v2.76c0,0.41,0.04,0.9,0.49,0.9c0.45,0,0.53-0.35,0.53-0.84v-0.46h-0.53
				v-1.24h2.3v3.65h0.62v-6.69h1.88v5.18h2.04v1.52h0.37l1.79-3.52l3.45-6.79h-0.98l-14.56,1.74l-10.92,1.3l-2.62,3.48l-2.78,3.69
				v0.1h5.94C116.78,87.53,116.38,86.98,116.38,85.93z M140.59,78.78c0.3,0,0.56,0.23,0.56,0.58c0,0.35-0.26,0.58-0.56,0.58
				c-0.33,0-0.57-0.25-0.57-0.58C140.02,79.01,140.29,78.78,140.59,78.78z"/>
			<path class="st2" d="M140.48,79.41h0.1l0.17,0.27h0.12l-0.18-0.28c0.09-0.01,0.17-0.06,0.17-0.17c0-0.13-0.08-0.18-0.23-0.18
				h-0.24v0.64h0.1V79.41z M140.48,79.14h0.13c0.06,0,0.14,0.01,0.14,0.09c0,0.09-0.07,0.1-0.15,0.1h-0.12V79.14z"/>
			<path class="st2" d="M140.59,79.93c0.3,0,0.56-0.23,0.56-0.58c0-0.35-0.26-0.58-0.56-0.58c-0.31,0-0.57,0.23-0.57,0.58
				C140.02,79.68,140.26,79.93,140.59,79.93z M140.59,78.88c0.25,0,0.44,0.2,0.44,0.48c0,0.28-0.19,0.48-0.44,0.48
				c-0.27,0-0.44-0.21-0.44-0.48C140.15,79.07,140.34,78.88,140.59,78.88z"/>
		</g>
	</g>
</g>
<ellipse class="st0" cx="92.61" cy="27.11" rx="9.44" ry="7.79"/>
<ellipse transform="matrix(0.5748 -0.8183 0.8183 0.5748 -33.2924 52.2275)" class="st3" cx="33.61" cy="58.15" rx="5.46" ry="4.95"/>
<g>
	<polygon class="st3" points="44.23,31.64 6.12,65.36 9.12,55.11 47.23,21.39 	"/>
	<polygon class="st3" points="44.23,31.64 48.38,36.26 50.82,25.87 47.23,21.39 	"/>
	<polygon class="st3" points="44.23,31.64 6.12,65.36 10.27,69.98 48.38,36.26 	"/>
</g>
<g>
	<polygon class="st4" points="112.56,69.54 50.76,25.38 55.11,35.42 116.91,79.57 	"/>
	<polygon class="st4" points="112.56,69.54 116.18,64.49 119.98,74.73 116.91,79.57 	"/>
	<polygon class="st4" points="112.56,69.54 50.76,25.38 54.38,20.33 116.18,64.49 	"/>
	<polygon class="st4" points="114.36,62.03 48.34,15.34 51.96,10.29 117.99,56.98 	"/>
</g>
</svg>
