<?xml version="1.0" encoding="utf-8"?>
<!-- Generator: Adobe Illustrator 26.1.0, SVG Export Plug-In . SVG Version: 6.00 Build 0)  -->
<svg version="1.1" id="Layer_1" xmlns="http://www.w3.org/2000/svg" xmlns:xlink="http://www.w3.org/1999/xlink" x="0px" y="0px"
	 viewBox="0 0 159.85 100.39" style="enable-background:new 0 0 159.85 100.39;" xml:space="preserve">
<style type="text/css">
	.st0{fill:none;stroke:#3C3C3B;stroke-width:2.1823;stroke-linecap:round;stroke-miterlimit:10;}
	.st1{fill:#3C3C3B;stroke:#3C3C3B;stroke-width:2;stroke-linecap:round;stroke-linejoin:round;stroke-miterlimit:10;}
	.st2{fill:#FFFFFF;}
	.st3{fill:#3C3C3B;}
</style>
<path class="st0" d="M62.32,28.36c0.02,0.04,0.04,0.08,0.06,0.13c0.21,0.51,0.21,1.08,0.2,1.63c-0.01,0.58-0.04,1.16-0.07,1.74
	c-0.02,0.3-0.04,0.61-0.17,0.88c-0.14,0.3-0.4,0.53-0.62,0.78c-0.59,0.69-0.87,1.61-1.43,2.33c-1.38,1.76-2.28,0.32-3.6-0.34
	c-0.22-0.18-0.44-0.36-0.57-0.62c-0.15-0.31-0.13-0.69-0.08-1.03c0.22-1.44,0.95-2.73,1.97-3.76c0.51-0.51,2.52-2.57,3.12-2.56
	C61.65,27.54,62.09,27.91,62.32,28.36z"/>
<path class="st0" d="M147.67,61.19c0.16,0.19,0.31,0.39,0.46,0.59c0.14,0.18,0.28,0.36,0.43,0.53c0.62,0.77,1.23,1.54,1.85,2.31
	c0.12,0.14,0.24,0.3,0.29,0.47c0.09,0.33-0.06,0.69,0.01,1.02c0.22,1.17,1.07,2.84-1.02,3.05c-1.68,0.17-2.56-1.82-2.91-3.12
	c-0.25-0.93-0.62-1.96-1.5-2.35c-0.46-0.2-0.98-0.18-1.45-0.34c-0.47-0.16-0.93-0.61-0.79-1.09c0.42-0.18,0.7-0.65,0.65-1.11
	c-0.02-0.2,2.05-1.02,2.3-1.02C146.72,60.16,147.21,60.63,147.67,61.19z"/>
<path class="st0" d="M92.16,49.69c-0.31,0.35-0.73,0.6-1.17,0.78c-0.95,0.4-2.04,0.54-3.03,0.25c-4.07-1.22-1.35-5.45,1.35-6.39
	c0.33-0.11,0.69-0.06,1.04,0.01c1.07,0.24,2.36,0.72,2.61,1.94c0.07,0.33,0.04,0.68,0,1.02C92.87,48.15,92.73,49.05,92.16,49.69z"/>
<path class="st0" d="M37.36,70.57c0.01,0.34-0.01,0.72-0.25,0.97c-0.22,0.23-0.57,0.32-0.9,0.38c-1.31,0.27-2.64,0.44-3.98,0.5
	c-0.59,0.03-1.21,0.03-1.75-0.2c-0.47-0.2-0.82-0.57-1.24-0.84c-0.79-0.52-1.77-0.72-2.68-1.05c-0.91-0.33-1.82-0.88-2.09-1.73
	c-0.36-1.16,0.62-2.26,1.53-3.12c1.16-1.1,2.32-2.2,3.49-3.3c0.19-0.18,0.4-0.37,0.66-0.46c0.33-0.11,0.69-0.06,1.03,0.01
	C35.36,62.69,37.21,67.01,37.36,70.57z"/>
<path class="st0" d="M49.64,55.75c-0.35-0.3-0.71-0.66-0.77-1.12c-0.05-0.41,0.15-0.81,0.35-1.17c0.69-1.24,2.05-4.64,3.99-3.95
	c0.61,0.21,0.94,0.85,1.2,1.43c0.25,0.55,0.48,1.2,0.18,1.73c-0.12,0.21-0.31,0.37-0.42,0.58c-0.3,0.57,0.05,1.25,0.28,1.85
	c0.31,0.81,0.34,1.86-0.33,2.4c-0.4,0.32-0.95,0.38-1.45,0.27C51.53,57.53,50.52,56.49,49.64,55.75z"/>
<line class="st0" x1="11.09" y1="67.7" x2="156.02" y2="67.7"/>
<path class="st0" d="M144.35,60.64c-0.26-3.01-2.74-5.69-5.73-6.16c-0.2-0.03-0.42-0.06-0.58-0.2c-0.19-0.16-0.24-0.43-0.3-0.67
	c-0.35-1.35-1.47-2.45-1.61-3.84c-0.15-1.61,1.03-3.45,0.03-4.73c-0.68-0.87-2.04-0.87-3.04-0.39c-1,0.47-1.78,1.3-2.7,1.91
	c-0.62,0.41-1.43,0.73-2.08,0.38c-0.31-0.16-0.53-0.45-0.75-0.72c-1.12-1.33-2.61-2.34-4.25-2.89"/>
<path class="st0" d="M114.84,37.63c-2.4-0.89-5.14-2.17-5.65-4.68c-0.07-0.33-0.09-0.68-0.24-0.99c-0.42-0.92-1.62-1.1-2.62-1.23
	c-4.59-0.61-8.8-2.81-12.9-4.98c-1.02-0.54-2.07-1.1-2.83-1.97c-0.38-0.44-0.68-0.95-1.12-1.33c-1.5-1.3-3.89-0.61-5.71-1.43
	c-1.39-0.62-2.17-1.97-3.21-3.01c-1.77-1.78-4.94-2.24-6.45-4.13c-1.74-2.17-2.35-4.33-5.44-5.03c-0.34-0.08-0.71-0.13-1.03-0.01
	c-0.26,0.09-0.46,0.28-0.66,0.46c-1.02,1.02-2.27,2.02-3.09,3.21c-0.43,0.62-0.35,1.59-0.98,2.01c-0.15,0.1-0.32,0.16-0.46,0.26
	c-0.41,0.31-0.42,0.97-0.12,1.38c0.3,0.42,0.81,0.63,1.31,0.73c0.62,0.12,1.34,0.06,1.78-0.39c0.39-0.39,0.48-0.98,0.72-1.49
	c0.44-0.94,1.44-1.59,2.48-1.59c1.83-0.01,3.35,1.78,5.17,1.65c-0.03-0.23,0.01-0.47,0.1-0.68"/>
<path class="st0" d="M61.42,15.9c-1.51,1.19-3.12,2.52-3.53,4.39c-0.11,0.5-0.19,1.1-0.65,1.33c-0.15,0.07-0.32,0.09-0.46,0.18
	c-0.43,0.26-0.34,0.92-0.11,1.37c0.23,0.45,0.56,0.93,0.41,1.42c-0.06,0.21-0.21,0.38-0.33,0.57c-0.48,0.76-0.5,1.74-0.25,2.6
	s0.74,1.63,1.22,2.39c-0.19,0.2-0.56,0.16-0.71-0.06"/>
<path class="st0" d="M56.39,35.53c-3.36-0.61-7,0.79-9.08,3.49c-1.53,1.99-2.37,4.68-4.6,5.83c-1.18,0.61-2.77,0.81-3.34,2.01
	c-0.67,1.4,0.58,3.1,0.12,4.58c-0.17,0.55-0.56,1-0.95,1.43c-1.33,1.5-3,3.14-4.99,2.89c-0.17,1.91-0.93,3.76-2.15,5.24"/>
<path class="st0" d="M26.46,64.21c-1.69-0.88-3.48-1.56-5.33-2.02c-0.24-0.06-0.49-0.11-0.72-0.02c-0.24,0.1-0.38,0.33-0.52,0.55
	c-0.77,1.22-1.79,2.4-3.18,2.81c-1,0.29-2.11,0.16-3.09,0.52c-1.82,0.67-2.62,3.21-1.53,4.8"/>
<g>
	<rect x="3.25" y="67.05" class="st1" width="155.6" height="30.16"/>
	<rect x="3.25" y="67.05" class="st1" width="4.5" height="32.34"/>
	<path class="st1" d="M6.3,74.17l-3.56-0.94C1.72,72.95,1,72.02,1,70.96v-3.91h5.3V74.17z"/>
	<rect x="22.14" y="67.05" class="st1" width="4.5" height="32.34"/>
	<rect x="41.03" y="67.05" class="st1" width="4.5" height="32.34"/>
	<rect x="59.91" y="67.05" class="st1" width="4.5" height="32.34"/>
	<rect x="78.8" y="67.05" class="st1" width="4.5" height="32.34"/>
	<rect x="97.69" y="67.05" class="st1" width="4.5" height="32.34"/>
	<rect x="116.57" y="67.05" class="st1" width="4.5" height="32.34"/>
	<rect x="135.46" y="67.05" class="st1" width="4.5" height="32.34"/>
	<rect x="154.35" y="67.05" class="st1" width="4.5" height="32.34"/>
</g>
<g>
	<g>
		<polygon class="st2" points="117.35,86.21 116.93,86.74 116.92,86.74 116.92,86.21 116.45,86.21 116.45,87.76 116.92,87.76 
			116.92,87.3 117.06,87.16 117.44,87.76 118.03,87.76 117.38,86.82 117.94,86.21 		"/>
		<g>
			<path class="st2" d="M119.51,87.41c0.12,0,0.31-0.08,0.31-0.43c0-0.34-0.19-0.43-0.31-0.43c-0.12,0-0.31,0.08-0.31,0.43
				C119.2,87.33,119.39,87.41,119.51,87.41 M119.51,86.17c0.47,0,0.79,0.34,0.79,0.81c0,0.47-0.31,0.81-0.79,0.81
				c-0.47,0-0.79-0.34-0.79-0.81C118.73,86.51,119.04,86.17,119.51,86.17"/>
		</g>
		<polygon class="st2" points="122.09,86.21 122.09,87.04 122.09,87.04 121.64,86.21 121.15,86.21 121.15,87.76 121.6,87.76 
			121.6,86.91 121.61,86.91 122.08,87.76 122.55,87.76 122.55,86.21 		"/>
		<polygon class="st2" points="123.37,86.21 123.37,86.61 123.81,86.61 123.81,87.76 124.29,87.76 124.29,86.61 124.72,86.61 
			124.72,86.21 		"/>
		<polygon class="st2" points="125.55,86.21 125.55,87.76 126.85,87.76 126.85,87.36 126.02,87.36 126.02,87.17 126.75,87.17 
			126.75,86.8 126.02,86.8 126.02,86.61 126.83,86.61 126.83,86.21 		"/>
		<g>
			<path class="st2" d="M128.8,87.2c0,0.43-0.19,0.59-0.58,0.59c-0.39,0-0.57-0.22-0.57-0.56v-0.13h0.43v0.09
				c0,0.12,0,0.23,0.13,0.23c0.12,0,0.11-0.15,0.11-0.22v-1h0.48V87.2z"/>
		</g>
		<polygon class="st2" points="130.65,86.21 130.65,87.04 130.64,87.04 130.19,86.21 129.7,86.21 129.7,87.76 130.15,87.76 
			130.15,86.91 130.16,86.91 130.63,87.76 131.1,87.76 131.1,86.21 		"/>
		<polygon class="st2" points="132,86.21 132,87.76 133.3,87.76 133.3,87.36 132.47,87.36 132.47,87.17 133.21,87.17 133.21,86.8 
			132.47,86.8 132.47,86.61 133.28,86.61 133.28,86.21 		"/>
		<g>
			<path class="st2" d="M134.65,86.89h0.25c0.09,0,0.21-0.02,0.21-0.15c0-0.1-0.05-0.15-0.24-0.15h-0.22V86.89z M134.18,86.21h0.91
				c0.27,0,0.51,0.15,0.51,0.44c0,0.16-0.07,0.33-0.23,0.39c0.13,0.05,0.21,0.19,0.23,0.39c0.01,0.07,0.01,0.26,0.05,0.33h-0.48
				c-0.02-0.08-0.03-0.16-0.04-0.24c-0.01-0.15-0.03-0.3-0.21-0.3h-0.25v0.54h-0.48V86.21z"/>
		</g>
		<polygon class="st2" points="137.22,86.21 136.95,86.78 136.69,86.21 136.17,86.21 136.71,87.19 136.71,87.76 137.19,87.76 
			137.19,87.19 137.74,86.21 		"/>
		<g>
			<polygon class="st2" points="119.75,85.06 119.75,85.06 121.51,85.06 121.51,85.06 			"/>
			<polygon class="st2" points="142.46,74.75 127.9,76.49 142.46,74.75 			"/>
			<polygon class="st2" points="111.6,85.06 111.6,85.06 117.53,85.06 117.53,85.06 			"/>
			<polygon class="st2" points="116.99,77.79 114.37,81.27 116.99,77.79 			"/>
			<polygon class="st2" points="114.37,81.27 111.52,85.06 111.6,85.06 111.6,84.96 			"/>
			<polygon class="st2" points="140,81.55 143.51,74.63 143.51,74.63 142.46,74.75 143.45,74.75 			"/>
			<path class="st2" d="M140.74,76.53c0-0.08-0.08-0.09-0.14-0.09h-0.13v0.19h0.12C140.67,76.63,140.74,76.62,140.74,76.53z"/>
			<polygon class="st2" points="116.99,77.79 116.99,77.79 127.9,76.49 			"/>
			<path class="st2" d="M140.59,77.14c0.25,0,0.44-0.19,0.44-0.48c0-0.28-0.19-0.48-0.44-0.48c-0.25,0-0.44,0.2-0.44,0.48
				C140.15,76.92,140.32,77.14,140.59,77.14z M140.37,76.35h0.24c0.15,0,0.23,0.05,0.23,0.18c0,0.12-0.07,0.16-0.17,0.17l0.18,0.28
				h-0.12l-0.17-0.27h-0.1v0.27h-0.1V76.35z"/>
			<path class="st2" d="M116.38,83.23v-0.18h1.82v0.31c0,0.33,0.14,0.59,0.47,0.59c0.35,0,0.46-0.3,0.46-0.59
				c0-0.42-0.17-0.53-0.4-0.67c-0.25-0.14-0.59-0.26-0.93-0.44c-1.02-0.5-1.35-0.87-1.35-1.87c0-0.94,0.27-1.43,0.71-1.74
				c0.33-0.22,0.79-0.41,1.53-0.41c1.89,0,2.21,0.94,2.21,2.05h-1.76v-0.27c0-0.29-0.11-0.54-0.44-0.54c-0.29,0-0.43,0.23-0.43,0.51
				c0,1.34,2.79,0.64,2.79,3.04c0,1.15-0.4,1.79-1.31,2.04h1.76v-6.69h1.88v6.69h0.64v-6.69h4.03v1.52h-2.16v1.03h2.02v1.46h-2.02
				v1.16h2.24v1.52h1.62c-1.12-0.43-1.16-1.84-1.16-3.34c0-1.91,0.1-3.49,2.39-3.49c1.85,0,2.26,0.92,2.26,2.27h-1.76v-0.27
				c0-0.5-0.11-0.76-0.48-0.76c-0.45,0-0.48,0.41-0.48,0.82v2.76c0,0.41,0.04,0.9,0.49,0.9c0.45,0,0.53-0.35,0.53-0.84v-0.46h-0.53
				v-1.24h2.3v3.65h0.62v-6.69h1.88v5.18h2.04v1.52h0.37l1.79-3.52l3.45-6.79h-0.98l-14.56,1.74l-10.92,1.3l-2.62,3.48l-2.78,3.69
				v0.1h5.94C116.78,84.83,116.38,84.29,116.38,83.23z M140.59,76.08c0.3,0,0.56,0.23,0.56,0.58c0,0.35-0.26,0.58-0.56,0.58
				c-0.33,0-0.57-0.25-0.57-0.58C140.02,76.32,140.29,76.08,140.59,76.08z"/>
			<path class="st2" d="M140.48,76.72h0.1l0.17,0.27h0.12l-0.18-0.28c0.09-0.01,0.17-0.06,0.17-0.17c0-0.13-0.08-0.18-0.23-0.18
				h-0.24v0.64h0.1V76.72z M140.48,76.44h0.13c0.06,0,0.14,0.01,0.14,0.09c0,0.09-0.07,0.1-0.15,0.1h-0.12V76.44z"/>
			<path class="st2" d="M140.59,77.24c0.3,0,0.56-0.23,0.56-0.58c0-0.35-0.26-0.58-0.56-0.58c-0.31,0-0.57,0.23-0.57,0.58
				C140.02,76.99,140.26,77.24,140.59,77.24z M140.59,76.18c0.25,0,0.44,0.2,0.44,0.48c0,0.28-0.19,0.48-0.44,0.48
				c-0.27,0-0.44-0.21-0.44-0.48C140.15,76.38,140.34,76.18,140.59,76.18z"/>
		</g>
	</g>
</g>
<path class="st0" d="M72.08,25.84c0.35-0.93,1.32-1.51,2.3-1.66c0.98-0.15,1.98,0.06,2.94,0.33c1.02,0.28,2.06,0.64,2.84,1.36
	c0.47,0.44,0.83,0.99,1.34,1.4c0.7,0.57,1.62,0.79,2.43,1.2c1.77,0.9,2.95,2.68,4.66,3.7"/>
<path class="st0" d="M121.24,69.83c0.19-1.68-0.12-3.41-0.88-4.91c-0.54-1.06-1.29-2-2.03-2.93c-0.69-0.86-1.38-1.72-2.07-2.59
	c-2.67-3.34-5.35-6.69-8.42-9.68"/>
<path class="st0" d="M75.04,41.05c1.16,1.52,1.69,3.49,1.46,5.39c-0.28,2.29-1.51,4.94,0.03,6.66c-2.22-0.35-4.27,2.32-3.36,4.37
	c0.11,0.25,0.25,0.49,0.23,0.76c-0.05,0.56-0.73,0.78-1.26,0.96c-3,0.99-4.56,4.58-4.05,7.69c0.19,1.18,0.62,2.37,0.33,3.53
	s-1.77,2.09-2.68,1.32"/>
<path class="st0" d="M49.76,55.94c-1.12,0.32-2.14,0.98-2.9,1.86c-0.35,0.4-0.65,0.96-0.43,1.45c0.12,0.26,0.37,0.45,0.45,0.72
	c0.16,0.53-0.39,0.98-0.71,1.44c-0.63,0.9-0.38,2.11-0.45,3.2c-0.14,2.18-1.6,4.03-2.99,5.72"/>
<path class="st0" d="M89.55,43.99c-0.37,0.27-0.91-0.07-1.06-0.5s-0.07-0.9-0.11-1.36c-0.12-1.54-1.51-2.64-2.88-3.36
	c-1.36-0.72-2.89-1.33-3.74-2.61"/>
<path class="st0" d="M90.51,50.88c0.42,0.75,0.84,1.49,1.26,2.24c0.08,0.14,0.16,0.34,0.05,0.46c-0.09,0.1-0.26,0.09-0.38,0.15
	c-0.19,0.1-0.22,0.37-0.21,0.58c0.11,1.28,0.84,1.45,1.54,2.25c0.72,0.82,0.96,1.92,1.22,2.96"/>
<path class="st0" d="M108.11,70.06c-0.29-2.19-0.59-4.37-0.88-6.56c-0.04-0.3-0.08-0.61-0.23-0.87c-0.25-0.46-0.75-0.7-1.15-1.03
	c-0.92-0.77-1.17-2.97-1.99-4.07"/>
<path class="st0" d="M119.21,49.57c1.91-0.33,3.98,0.87,4.64,2.7"/>
<path class="st3" d="M117.4,29.35c0.05-0.12,0.1-0.21,0.14-0.31c2.63-6.95,5.26-13.89,7.89-20.83c0.09-0.24,0.07-0.41-0.07-0.62
	c-1.19-1.8-1.31-3.76-0.81-5.8c0.06-0.26,0.15-0.51,0.24-0.76c0.29-0.83,1.03-1.2,1.87-0.93c0.33,0.11,0.65,0.24,0.97,0.36
	c2.16,0.82,4.32,1.63,6.47,2.45c1.12,0.43,1.44,1.15,0.96,2.25c-0.74,1.71-1.85,3.08-3.55,3.92c-0.34,0.17-0.71,0.29-1.08,0.4
	c-0.26,0.07-0.43,0.18-0.53,0.45c-2.61,6.92-5.23,13.84-7.85,20.76c-0.04,0.11-0.08,0.22-0.12,0.36c0.13,0.05,0.25,0.11,0.37,0.15
	c1.14,0.43,2.29,0.86,3.42,1.3c0.86,0.33,1.22,1.07,0.89,1.92c-1.17,3.11-2.3,6.25-3.57,9.32c-0.29,0.7-0.84,1.92-1.48,2.37
	c-0.81,0.58-2.3,0.17-3.2,0.03c-1.31-0.19-2.63-0.39-3.84-0.9c-0.67-0.28-1.3-0.65-1.92-1.02c-0.86-0.51-1.73-1.02-2.43-1.74
	c-1.39-1.42-2.15-3.89-1.51-5.79c0.87-2.6,1.95-5.15,2.92-7.71c0.43-1.15,1.1-1.44,2.25-1.01C115.01,28.44,116.2,28.89,117.4,29.35z
	 M131.79,5.18c-1.55-0.59-3.1-1.18-4.65-1.76c-0.09,0.65-0.01,1.33,0.23,1.99c0.45,1.23,1.64,1.73,2.8,1.17
	C130.86,6.25,131.41,5.76,131.79,5.18z"/>
</svg>
