<?xml version="1.0" encoding="UTF-8"?>
<svg width="982px" height="982px" viewBox="0 0 982 982" version="1.1" xmlns="http://www.w3.org/2000/svg" xmlns:xlink="http://www.w3.org/1999/xlink">
    <!-- Generator: Sketch 52.6 (67491) - http://www.bohemiancoding.com/sketch -->
    <title>6535d929bd70533773a515d8025007c0</title>
    <desc>Created with Sketch.</desc>
    <g id="Page-1" stroke="none" stroke-width="1" fill="none" fill-rule="evenodd">
        <g id="6535d929bd70533773a515d8025007c0" fill="#D71921">
            <g id="Group" transform="translate(491.000000, 491.000000) scale(-1, 1) rotate(-180.000000) translate(-491.000000, -491.000000) translate(0.900000, 0.900000)">
                <path d="M0.1,799.79 C0.1,683.03 1.63,617.19 3.93,612.21 C12.73,596.51 23.07,603.79 90.83,670.78 L157.06,736.62 L253.91,640.53 C317.45,577 354.2,543.31 361.09,541.4 C377.94,537.57 403.97,541.78 416.6,550.59 C437.27,565.52 447.23,603.42 436.12,625.24 C433.82,629.83 389.42,676.16 337.74,728.22 L243.18,823.16 L309.41,889.39 C376.4,957.15 383.68,967.49 367.98,976.29 C363,978.59 297.16,980.12 180.4,980.12 L0.1,980.12 L0.1,799.79 Z" id="Path"></path>
                <path d="M611.83,975.89 C596.9,967.47 604.17,956.37 670.79,889.37 L736.63,823.14 L640.54,726.3 C577,662.75 543.31,626 541.4,619.11 C537.57,602.26 541.78,576.23 550.58,563.6 C565.51,542.93 603.41,532.97 625.23,544.08 C629.82,546.38 676.14,590.78 728.21,642.46 L823.15,737.02 L889.38,670.79 C957.14,603.8 967.48,596.52 976.28,612.22 C978.57,617.2 980.11,683.04 980.11,799.8 L980.11,980.1 L799.41,980.1 C683.42,980.1 616.05,978.57 611.83,975.89 Z" id="Path"></path>
                <path d="M354.2,436.13 C349.99,433.83 304.05,389.43 251.99,337.75 L157.05,243.19 L90.82,309.42 C23.06,376.41 12.72,383.69 3.92,367.99 C1.62,363.01 0.09,297.17 0.09,180.41 L0.09,0.11 L180.4,0.11 C297.16,0.11 363,1.64 367.98,3.94 C383.68,12.74 376.4,23.08 309.41,90.84 L243.57,157.07 L339.66,253.92 C403.2,317.47 436.89,354.22 438.81,361.11 C445.7,390.59 432.3,422.75 408.18,434.23 C393.25,441.1 365.69,442.25 354.2,436.13 Z" id="Path"></path>
                <path d="M571.26,433.83 C547.52,422.34 534.5,390.19 541.4,361.09 C543.31,354.2 577,317.45 640.55,253.9 L736.64,157.05 L670.8,90.82 C603.81,23.06 596.53,12.72 612.23,3.92 C617.21,1.63 683.05,0.09 799.81,0.09 L980.11,0.09 L980.11,180.39 C980.11,297.15 978.58,362.99 976.28,367.97 C967.48,383.67 957.14,376.39 889.38,309.4 L823.15,243.17 L728.21,337.73 C676.14,389.41 629.83,433.81 625.23,436.11 C613.37,442.25 585.8,441.1 571.26,433.83 Z" id="Path"></path>
            </g>
        </g>
    </g>
</svg>