<?xml version="1.0" encoding="UTF-8"?>
<svg width="961px" height="396px" viewBox="0 0 961 396" version="1.1" xmlns="http://www.w3.org/2000/svg" xmlns:xlink="http://www.w3.org/1999/xlink">
    <!-- Generator: Sketch 52.6 (67491) - http://www.bohemiancoding.com/sketch -->
    <title>logo-siegl-poz-cmyk</title>
    <desc>Created with Sketch.</desc>
    <g id="logo-siegl-poz-cmyk" stroke="none" stroke-width="1" fill="none" fill-rule="evenodd">
        <polygon id="Fill-1" fill="#1A1919" points="147.959 348.3439 162.29 348.3439 162.29 364.3709 162.421 364.3709 175.186 348.3439 192.84 348.3439 175.969 366.5189 195.577 394.8569 177.729 394.8569 166.262 376.7479 162.29 381.1119 162.29 394.8569 147.959 394.8569"></polygon>
        <g id="Group-22" transform="translate(216.000000, 43.439000)">
            <path d="M24.0245,340.9312 C27.6715,340.9312 33.2735,338.5192 33.2735,328.1632 C33.2735,317.8042 27.6715,315.3942 24.0245,315.3942 C20.3745,315.3942 14.7735,317.8042 14.7735,328.1632 C14.7735,338.5192 20.3745,340.9312 24.0245,340.9312 M24.0245,303.7972 C38.1585,303.7972 47.6045,313.9592 47.6045,328.1632 C47.6045,342.3632 38.1585,352.5252 24.0245,352.5252 C9.8875,352.5252 0.4415,342.3632 0.4415,328.1632 C0.4415,313.9592 9.8875,303.7972 24.0245,303.7972" id="Fill-2" fill="#1A1919"></path>
            <polygon id="Fill-4" fill="#1A1919" points="73.291 304.9049 87.95 304.9049 101.498 329.7889 101.628 329.7889 101.628 304.9049 115.18 304.9049 115.18 351.4179 101.237 351.4179 86.973 326.0119 86.842 326.0119 86.842 351.4179 73.291 351.4179"></polygon>
            <polygon id="Fill-6" fill="#1A1919" points="153.1099 316.8267 140.0809 316.8267 140.0809 304.9047 180.4699 304.9047 180.4699 316.8267 167.4409 316.8267 167.4409 351.4177 153.1099 351.4177"></polygon>
            <polygon id="Fill-8" fill="#1A1919" points="205.3076 304.9049 243.8066 304.9049 243.8066 316.8269 219.6386 316.8269 219.6386 322.6249 241.5916 322.6249 241.5916 333.6999 219.6386 333.6999 219.6386 339.4959 244.5236 339.4959 244.5236 351.4179 205.3076 351.4179"></polygon>
            <path d="M303.1715,334.6774 C303.1715,347.5094 297.4395,352.5254 285.7145,352.5254 C273.9235,352.5254 268.6465,345.9464 268.6465,335.7824 L268.6465,331.8744 L281.5455,331.8744 L281.5455,334.5474 C281.5455,338.1274 281.5455,341.4504 285.3875,341.4504 C289.0345,341.4504 288.8405,336.9564 288.8405,334.8714 L288.8405,304.9054 L303.1715,304.9054 L303.1715,334.6774 Z" id="Fill-10" fill="#1A1919"></path>
            <polygon id="Fill-12" fill="#1A1919" points="330.1544 304.9049 344.8134 304.9049 358.3614 329.7889 358.4914 329.7889 358.4914 304.9049 372.0434 304.9049 372.0434 351.4179 358.1004 351.4179 343.8364 326.0119 343.7054 326.0119 343.7054 351.4179 330.1544 351.4179"></polygon>
            <polygon id="Fill-14" fill="#1A1919" points="399.0952 304.9049 437.5942 304.9049 437.5942 316.8269 413.4262 316.8269 413.4262 322.6249 435.3792 322.6249 435.3792 333.6999 413.4262 333.6999 413.4262 339.4959 438.3112 339.4959 438.3112 351.4179 399.0952 351.4179"></polygon>
            <path d="M478.8503,325.2316 L486.3423,325.2316 C489.0123,325.2316 492.6593,324.7736 492.6593,320.6046 C492.6593,317.6736 491.0333,315.9796 485.5593,315.9796 L478.8503,315.9796 L478.8503,325.2316 Z M464.5193,304.9046 L491.8133,304.9046 C499.8903,304.9046 506.9903,309.4016 506.9903,318.1956 C506.9903,323.0166 504.7753,328.0966 500.0203,329.8556 C503.9293,331.3546 506.3413,335.6546 506.8603,341.4506 C507.0573,343.6656 507.0573,349.3976 508.4253,351.4176 L494.0943,351.4176 C493.3753,349.0726 493.1143,346.6626 492.9203,344.2506 C492.5953,339.8236 492.1373,335.1966 486.4723,335.1966 L478.8503,335.1966 L478.8503,351.4176 L464.5193,351.4176 L464.5193,304.9046 Z" id="Fill-16" fill="#1A1919"></path>
            <polygon id="Fill-18" fill="#1A1919" points="540.6242 334.2861 524.2722 304.9051 540.1022 304.9051 547.8552 322.0391 555.9322 304.9051 571.6322 304.9051 554.9552 334.2861 554.9552 351.4181 540.6242 351.4181"></polygon>
            <path d="M657.3034,17.0966 C659.6684,17.0966 661.7554,16.8666 661.7554,14.0846 C661.7554,11.7196 659.4384,11.4866 657.5834,11.4866 L653.7814,11.4866 L653.7814,17.0966 L657.3034,17.0966 Z M653.7814,27.9916 L650.6274,27.9916 L650.6274,8.7976 L657.9084,8.7976 C662.5444,8.7976 664.9094,10.4206 664.9094,14.3156 C664.9094,17.7936 662.7304,19.2316 659.9014,19.5536 L665.2784,27.9916 L661.7084,27.9916 L656.7484,19.7866 L653.7814,19.7866 L653.7814,27.9916 Z M657.2114,3.7456 C649.6534,3.7456 643.8574,9.6326 643.8574,18.0706 C643.8574,25.9536 648.9594,32.3966 657.2114,32.3966 C664.6284,32.3966 670.4714,26.5566 670.4714,18.0706 C670.4714,9.6326 664.6284,3.7456 657.2114,3.7456 Z M657.2114,35.4106 C647.2444,35.4106 640.1494,27.9466 640.1494,18.0706 C640.1494,7.6836 648.0324,0.7306 657.2114,0.7306 C666.2994,0.7306 674.1794,7.6836 674.1794,18.0706 C674.1794,28.4546 666.2994,35.4106 657.2114,35.4106 Z" id="Fill-20" fill="#FFFFFE"></path>
        </g>
        <g id="Group-38" transform="translate(-1.000000, 0.439000)">
            <path d="M165.2781,95.0921 L0.9431,313.4081 L181.6531,313.4081 C159.0571,306.5611 146.9811,290.0741 146.9811,258.4961 L146.9811,253.1441 L201.6131,253.1441 L201.6131,262.4371 C201.6131,272.2941 205.8351,280.1801 215.6921,280.1801 C226.1121,280.1801 229.4901,271.1671 229.4901,262.4371 C229.4901,249.7661 224.4211,246.6681 217.3821,242.4441 C209.7791,238.2191 199.6401,234.5581 189.5031,229.2091 C158.8091,214.2811 148.9521,203.0171 148.9521,173.1671 C148.9521,145.0071 157.1181,130.0821 170.3531,120.7891 C180.2101,114.0301 194.0081,108.3981 216.2551,108.3981 C273.1411,108.3981 282.7151,136.5581 282.7151,170.0691 L229.7731,170.0691 L229.7731,161.9031 C229.7731,153.1731 226.3921,145.5711 216.5381,145.5711 C207.8061,145.5711 203.5841,152.6101 203.5841,160.7761 C203.5841,201.0461 287.5031,179.9261 287.5031,252.0171 C287.5031,286.4771 275.5601,305.7451 248.1481,313.4081 L301.0181,313.4081 L301.0181,112.3401 L357.3401,112.3401 L357.3401,313.4081 L376.4901,313.4081 L376.4901,112.3401 L497.5811,112.3401 L497.5811,157.9621 L432.8091,157.9621 L432.8091,188.9391 L493.3561,188.9391 L493.3561,232.8671 L432.8091,232.8671 L432.8091,267.7891 L500.1151,267.7891 L500.1151,313.4081 L548.6451,313.4081 C515.0971,300.5881 513.9141,258.2481 513.9141,213.1571 C513.9141,155.7081 517.0111,108.3981 585.7241,108.3981 C641.2001,108.3981 653.5911,135.9971 653.5911,176.5481 L600.6501,176.5481 L600.6501,168.3821 C600.6501,153.4571 597.2691,145.5711 586.2881,145.5711 C572.7701,145.5711 571.9261,157.9621 571.9261,170.3521 L571.9261,253.1441 C571.9261,265.5351 573.0511,280.1801 586.5681,280.1801 C600.0861,280.1801 602.3401,269.7601 602.3401,254.8351 L602.3401,241.0361 L586.2881,241.0361 L586.2881,203.8641 L655.2821,203.8641 L655.2821,313.4081 L673.8711,313.4081 L673.8711,112.3401 L730.1901,112.3401 L730.1901,267.7891 L791.5811,267.7891 L791.5811,313.4081 L802.7821,313.4081 L961.8781,0.0351 L505.94018,54.4414405 L165.2781,95.0921 Z" id="Fill-32" fill="#D71921"></path>
            <path d="M870.7809,60.0965 L870.7809,54.4865 L874.5839,54.4865 C876.4379,54.4865 878.7559,54.7195 878.7559,57.0845 C878.7559,59.8665 876.6679,60.0965 874.3029,60.0965 L870.7809,60.0965 Z M881.9089,57.3155 C881.9089,53.4205 879.5439,51.7975 874.9089,51.7975 L867.6279,51.7975 L867.6279,70.9915 L870.7809,70.9915 L870.7809,62.7865 L873.7479,62.7865 L878.7079,70.9915 L882.2779,70.9915 L876.9019,62.5535 C879.7299,62.2315 881.9089,60.7935 881.9089,57.3155 Z" id="Fill-34" fill="#FFFFFE"></path>
            <path d="M874.2119,75.3965 C865.9599,75.3965 860.8579,68.9535 860.8579,61.0705 C860.8579,52.6325 866.6539,46.7455 874.2119,46.7455 C881.6289,46.7455 887.4719,52.6325 887.4719,61.0705 C887.4719,69.5565 881.6289,75.3965 874.2119,75.3965 M874.2119,43.7305 C865.0329,43.7305 857.1499,50.6845 857.1499,61.0705 C857.1499,70.9465 864.2439,78.4105 874.2119,78.4105 C883.2999,78.4105 891.1799,71.4545 891.1799,61.0705 C891.1799,50.6845 883.2999,43.7305 874.2119,43.7305" id="Fill-36" fill="#FFFFFE"></path>
        </g>
    </g>
</svg>