<?xml version="1.0" encoding="UTF-8"?>
<svg width="87px" height="90px" viewBox="0 0 87 90" version="1.1" xmlns="http://www.w3.org/2000/svg" xmlns:xlink="http://www.w3.org/1999/xlink">
    <!-- Generator: Sketch 52.6 (67491) - http://www.bohemiancoding.com/sketch -->
    <title>24 h</title>
    <desc>Created with Sketch.</desc>
    <g id="Page-1" stroke="none" stroke-width="1" fill="none" fill-rule="evenodd">
        <g id="24-h" transform="translate(0.000000, -1.000000)" fill="#FFFFFF">
            <path d="M38,24.21 C37.36,24.21 36.72,23.97 36.23,23.48 C35.25,22.5 35.25,20.92 36.23,19.94 L43.66,12.51 L36.42,5.27 C35.44,4.29 35.44,2.71 36.42,1.73 C37.4,0.75 38.98,0.75 39.96,1.73 L47.33,9.1 C49.21,10.98 49.21,14.04 47.33,15.92 L39.77,23.48 C39.28,23.97 38.64,24.21 38,24.21 Z" id="Path"></path>
            <path d="M13.88,90.59 C13.37,90.59 12.87,90.44 12.43,90.13 C11.59,89.53 11.2,88.48 11.45,87.48 L15.64,70.79 C9.91,64.12 6.77,55.68 6.77,46.85 C6.78,26.59 23.27,10.1 43.53,10.1 C44.91,10.1 46.03,11.22 46.03,12.6 C46.03,13.98 44.91,15.1 43.53,15.1 C26.02,15.1 11.78,29.34 11.78,46.85 C11.78,54.87 14.78,62.53 20.23,68.41 C20.8,69.03 21.03,69.9 20.82,70.72 L17.87,82.46 L27.84,75.88 C28.56,75.4 29.48,75.34 30.26,75.7 C34.43,77.62 38.89,78.6 43.52,78.6 C61.03,78.6 75.27,64.36 75.27,46.85 C75.27,39.09 72.44,31.62 67.3,25.81 C66.38,24.78 66.48,23.2 67.51,22.28 C68.54,21.36 70.12,21.46 71.04,22.49 C76.99,29.21 80.27,37.86 80.27,46.84 C80.27,67.1 63.79,83.59 43.52,83.59 C38.64,83.59 33.91,82.65 29.45,80.8 L15.25,90.17 C14.84,90.45 14.36,90.59 13.88,90.59 Z" id="Path"></path>
            <path d="M84.15,50.16 L70.94,50.16 C69.56,50.16 68.44,49.04 68.44,47.66 C68.44,46.28 69.56,45.16 70.94,45.16 L84.15,45.16 C85.53,45.16 86.65,46.28 86.65,47.66 C86.65,49.04 85.53,50.16 84.15,50.16 Z" id="Path"></path>
            <path d="M42.28,89.94 C40.9,89.94 39.78,88.82 39.78,87.44 L39.78,74.23 C39.78,72.85 40.9,71.73 42.28,71.73 C43.66,71.73 44.78,72.85 44.78,74.23 L44.78,87.44 C44.78,88.82 43.67,89.94 42.28,89.94 Z" id="Path"></path>
            <path d="M15.71,48.08 L2.5,48.08 C1.12,48.08 0,46.96 0,45.58 C0,44.2 1.12,43.08 2.5,43.08 L15.71,43.08 C17.09,43.08 18.21,44.2 18.21,45.58 C18.21,46.96 17.09,48.08 15.71,48.08 Z" id="Path"></path>
            <g id="Group" transform="translate(24.000000, 30.000000)">
                <path d="M20.17,29.21 L0.65,29.21 L0.65,24.98 L9.64,15.53 C11.86,13.01 12.96,11 12.96,9.52 C12.96,8.32 12.7,7.4 12.17,6.77 C11.64,6.14 10.88,5.83 9.88,5.83 C8.89,5.83 8.09,6.25 7.48,7.09 C6.87,7.93 6.56,8.98 6.56,10.23 L0.07,10.23 C0.07,8.51 0.5,6.93 1.36,5.47 C2.22,4.02 3.41,2.88 4.93,2.06 C6.45,1.24 8.16,0.83 10.04,0.83 C13.06,0.83 15.39,1.53 17.02,2.92 C18.65,4.32 19.47,6.32 19.47,8.93 C19.47,10.03 19.26,11.1 18.85,12.15 C18.44,13.19 17.8,14.29 16.94,15.44 C16.08,16.59 14.68,18.12 12.76,20.04 L9.15,24.21 L20.16,24.21 L20.16,29.21 L20.17,29.21 Z" id="Path"></path>
                <path d="M36.6,18.28 L39.44,18.28 L39.44,23.28 L36.6,23.28 L36.6,29.22 L30.12,29.22 L30.12,23.28 L19.31,23.28 L18.93,19.32 L30.13,1.3 L30.13,1.24 L36.61,1.24 L36.61,18.28 L36.6,18.28 Z M25.09,18.28 L30.12,18.28 L30.12,9.67 L29.72,10.32 L25.09,18.28 Z" id="Shape" fill-rule="nonzero"></path>
            </g>
        </g>
    </g>
</svg>