<?xml version="1.0" encoding="UTF-8"?>
<svg width="902px" height="876px" viewBox="0 0 902 876" version="1.1" xmlns="http://www.w3.org/2000/svg" xmlns:xlink="http://www.w3.org/1999/xlink">
    <!-- Generator: Sketch 52.6 (67491) - http://www.bohemiancoding.com/sketch -->
    <title>SIEGL-GARANTUJEME CENU</title>
    <desc>Created with Sketch.</desc>
    <g id="Page-1" stroke="none" stroke-width="1" fill="none" fill-rule="evenodd">
        <g id="SIEGL-GARANTUJEME-CENU" fill="#FFFFFF">
            <path d="M272.58,668.61 C260.73,660.1 247.07,656.97 235.54,659.97 L240.34,648.63 L231.11,642 L230.77,642.47 L230.91,642.68 L230.58,642.74 L201.57,683.12 L238.49,709.64 L246.93,697.89 L225.74,682.67 C237.07,672.2 249.76,670.03 265.81,681.56 C279.03,691.05 286.48,707.69 272.24,727.52 C260.41,743.99 244.45,750.49 225.05,736.55 C214.87,729.24 208.52,718.16 213,705.95 L196.01,693.74 C187.14,709.63 193.54,731.72 216.2,747.99 C246.72,769.91 273.1,760.87 288.24,739.79 C303.38,718.71 304.26,691.36 272.58,668.61 Z" id="Path"></path>
            <path d="M219.11,625.4 L194.84,630.41 L170.36,594.58 L183.77,573.69 L171.6,555.88 L118.63,641.81 L131.6,660.79 L230.57,642.74 L230.76,642.47 L219.11,625.4 Z M138.49,642.47 L161.7,607.53 L179.62,633.76 L138.49,642.47 Z" id="Shape" fill-rule="nonzero"></path>
            <polygon id="Path" points="230.78 642.47 230.58 642.73 230.92 642.67"></polygon>
            <path d="M167.97,536.74 L132.84,546.36 L124.14,514.59 C120.42,501.01 129.01,496.65 141.59,493.21 C148.07,491.44 152.31,489.34 154.43,487.28 L148.91,467.1 C148.84,467.19 148.75,467.27 148.68,467.36 L148.51,469.7 L147.08,468.94 C142.48,472.78 134.66,475.02 130.87,476.06 C118.16,479.54 109.75,484.52 110.37,495.6 L110.12,495.67 C105.19,487.91 96.25,483.66 84.67,486.83 C70.72,490.65 62.51,500.8 68.72,523.47 L84.13,579.78 L173.08,555.43 L167.97,536.74 Z M92.98,557.27 L84.15,525 C81.42,515.03 83.27,508.1 92.62,505.54 C102.59,502.81 107.2,507.44 110.07,517.91 L118.9,550.18 L92.98,557.27 Z" id="Shape" fill-rule="nonzero"></path>
            <path d="M148.68,467.36 L149.99,448.83 L127.86,437.68 L130.93,394.39 L154.42,386.34 L155.92,365.14 L155.54,364.97 L61.06,399.27 L59.43,422.2 L147.08,468.93 C147.68,468.44 148.21,467.91 148.68,467.36 Z M113.85,430.86 L76.2,412.14 L116.09,399.17 L113.85,430.86 Z" id="Shape" fill-rule="nonzero"></path>
            <path d="M148.68,467.36 C148.21,467.91 147.68,468.44 147.08,468.93 L148.51,469.69 L148.68,467.36 Z" id="Path"></path>
            <polygon id="Path" points="155.92 365.15 156.6 365.45 164.16 348.46 100.91 320.32 101.02 320.08 186.73 297.72 195.61 277.78 111.36 240.29 103.8 257.28 167.04 285.42 166.94 285.66 81.38 307.67 72.35 327.96 155.54 364.98 155.95 364.83"></polygon>
            <polygon id="Path" points="155.95 364.83 155.54 364.98 155.92 365.15"></polygon>
            <polygon id="Path" points="162.23 199.74 219.7 252.1 232.75 237.78 175.27 185.42 198.59 159.83 187.89 150.09 128.22 215.58 138.92 225.33"></polygon>
            <path d="M296.47,191.7 C335.2,169.4 322.18,145.75 314.58,132.54 L288.35,86.98 L271.56,96.65 L297.53,141.76 C303.84,152.73 311.19,166.53 289.26,179.16 C267.32,191.79 259.25,178.55 252.87,167.47 L226.9,122.36 L210.11,132.03 L236.34,177.59 C244,190.91 257.85,213.94 296.47,191.7 Z" id="Path"></path>
            <path d="M371.19,161.89 C399.39,155.42 400.75,137.09 397.86,124.5 L383.49,61.81 L364.61,66.14 L377.77,123.55 C379.85,132.61 382.44,144.48 367.71,147.85 C352.23,151.4 349.47,139.97 347.34,130.66 L328.46,134.99 C331.48,148.2 336.82,169.76 371.19,161.89 Z" id="Path"></path>
            <polygon id="Path" points="496.36 139.52 434.7 136.36 436.01 110.82 494.19 113.8 494.93 99.36 436.76 96.37 437.95 73.15 498.57 76.26 499.31 61.82 419.34 57.71 414.61 149.81 495.62 153.97"></polygon>
            <polygon id="Path" points="549 89.92 549.24 90.03 548.55 173.4 563.61 180.24 626.16 124.94 626.39 125.05 594.19 194.12 610.77 201.65 648.89 117.67 623.72 106.25 564.98 158.16 565.15 79.66 539.75 68.13 501.63 152.1 518.21 159.63"></polygon>
            <polygon id="Path" points="672.93 268.48 683.28 258.39 640.18 214.19 658.49 196.33 699.16 238.03 709.51 227.94 668.84 186.23 685.49 170 727.87 213.46 738.22 203.36 682.32 146.03 616.3 210.42"></polygon>
            <path d="M763.51,442.12 L760.59,421.4 C750.64,421.11 736.29,416.48 733.47,396.53 C730.8,377.6 742.12,362.57 761.17,359.88 C784.96,356.53 798.56,367.91 801.07,385.69 C803.36,401.93 796.62,414.23 783.22,418.21 L786.14,438.93 C805.68,434.09 819.87,415.39 815.43,383.93 C810.38,348.12 785.73,336.07 760.02,339.7 C734.31,343.32 714,362.1 718.67,395.23 C723.96,432.7 745.09,441.98 763.51,442.12 Z" id="Path"></path>
            <polygon id="Path" points="737.32 474.56 762.46 479.25 751.78 536.51 766 539.16 776.68 481.9 799.53 486.16 788.4 545.83 802.62 548.49 817.3 469.77 726.65 452.86 711.78 532.59 726 535.24"></polygon>
            <polygon id="Path" points="752.11 651.42 692.04 617 692.17 616.78 779.53 603.56 790.57 584.29 710.55 538.44 701.31 554.58 761.38 589 761.25 589.22 673.7 602.77 662.84 621.71 742.86 667.56"></polygon>
            <path d="M646.78,757.04 L661.62,744.58 L628.15,704.72 C620.01,695.03 610.36,682.73 629.74,666.45 C649.13,650.17 659.39,661.79 667.61,671.58 L701.08,711.44 L715.92,698.98 L682.11,658.72 C672.23,646.95 654.55,626.71 620.43,655.36 C586.21,684.1 603.17,705.1 612.97,716.78 L646.78,757.04 Z" id="Path"></path>
            <path d="M858.72,437.87 C858.72,669.87 669.98,858.61 437.98,858.61 C205.98,858.61 17.24,669.87 17.24,437.87 C17.24,205.87 205.98,17.13 437.98,17.13 C582.02,17.13 709.38,89.89 785.25,200.59 L797.61,188.23 C782.8,166.95 766.09,146.93 747.51,128.35 C707.31,88.15 660.5,56.59 608.37,34.54 C554.4,11.71 497.07,0.14 437.98,0.14 C378.89,0.14 321.56,11.72 267.59,34.54 C215.46,56.59 168.65,88.15 128.45,128.35 C88.25,168.55 56.69,215.36 34.64,267.49 C11.81,321.46 0.24,378.79 0.24,437.88 C0.24,496.97 11.81,554.3 34.64,608.27 C56.69,660.4 88.25,707.21 128.45,747.41 C168.65,787.61 215.46,819.17 267.59,841.22 C321.56,864.05 378.89,875.62 437.98,875.62 C497.07,875.62 554.4,864.04 608.37,841.22 C660.5,819.17 707.31,787.61 747.51,747.41 C787.71,707.21 819.27,660.4 841.32,608.27 C864.15,554.3 875.72,496.97 875.72,437.88 C875.72,378.79 864.15,321.46 841.32,267.49 C836.32,255.67 830.8,244.13 824.83,232.87 L812.13,245.57 C841.9,303.23 858.72,368.62 858.72,437.87 Z" id="Path"></path>
            <polygon id="Path" points="900.51 133.14 888.63 121.25 887.22 119.84 885.8 121.25 806.13 200.92 793.68 213.37 429.96 577.09 241.35 388.48 239.93 387.07 238.52 388.48 226.64 400.36 225.23 401.78 226.64 403.19 428.55 605.1 429.96 606.52 431.37 605.1 804.7 231.78 817.29 219.19 900.51 135.96 901.93 134.55"></polygon>
        </g>
    </g>
</svg>