<?xml version="1.0" encoding="utf-8"?>
<!-- Generator: Adobe Illustrator 26.1.0, SVG Export Plug-In . SVG Version: 6.00 Build 0)  -->
<svg version="1.1" id="Layer_1" xmlns="http://www.w3.org/2000/svg" xmlns:xlink="http://www.w3.org/1999/xlink" x="0px" y="0px"
	 viewBox="0 0 86.65 89.59" style="enable-background:new 0 0 86.65 89.59;" xml:space="preserve">
<style type="text/css">
	.st0{fill:#3C3C3B;}
</style>
<g>
	<path class="st0" d="M38,23.21c-0.64,0-1.28-0.24-1.77-0.73c-0.98-0.98-0.98-2.56,0-3.54l7.43-7.43l-7.24-7.24
		c-0.98-0.98-0.98-2.56,0-3.54s2.56-0.98,3.54,0l7.37,7.37c1.88,1.88,1.88,4.94,0,6.82l-7.56,7.56C39.28,22.97,38.64,23.21,38,23.21
		z"/>
</g>
<g>
	<path class="st0" d="M13.88,89.59c-0.51,0-1.01-0.15-1.45-0.46c-0.84-0.6-1.23-1.65-0.98-2.65l4.19-16.69
		c-5.73-6.67-8.87-15.11-8.87-23.94C6.78,25.59,23.27,9.1,43.53,9.1c1.38,0,2.5,1.12,2.5,2.5s-1.12,2.5-2.5,2.5
		c-17.51,0-31.75,14.24-31.75,31.75c0,8.02,3,15.68,8.45,21.56c0.57,0.62,0.8,1.49,0.59,2.31l-2.95,11.74l9.97-6.58
		c0.72-0.48,1.64-0.54,2.42-0.18c4.17,1.92,8.63,2.9,13.26,2.9c17.51,0,31.75-14.24,31.75-31.75c0-7.76-2.83-15.23-7.97-21.04
		c-0.92-1.03-0.82-2.61,0.21-3.53c1.03-0.92,2.61-0.82,3.53,0.21c5.95,6.72,9.23,15.37,9.23,24.35c0,20.26-16.48,36.75-36.75,36.75
		c-4.88,0-9.61-0.94-14.07-2.79l-14.2,9.37C14.84,89.45,14.36,89.59,13.88,89.59z"/>
</g>
<g>
	<path class="st0" d="M84.15,49.16H70.94c-1.38,0-2.5-1.12-2.5-2.5s1.12-2.5,2.5-2.5h13.21c1.38,0,2.5,1.12,2.5,2.5
		S85.53,49.16,84.15,49.16z"/>
</g>
<g>
	<path class="st0" d="M42.28,88.94c-1.38,0-2.5-1.12-2.5-2.5V73.23c0-1.38,1.12-2.5,2.5-2.5s2.5,1.12,2.5,2.5v13.21
		C44.78,87.82,43.67,88.94,42.28,88.94z"/>
</g>
<g>
	<path class="st0" d="M15.71,47.08H2.5c-1.38,0-2.5-1.12-2.5-2.5s1.12-2.5,2.5-2.5h13.21c1.38,0,2.5,1.12,2.5,2.5
		S17.09,47.08,15.71,47.08z"/>
</g>
<g>
	<g>
		<path class="st0" d="M44.17,58.21H24.65v-4.23l8.99-9.45c2.22-2.52,3.32-4.53,3.32-6.01c0-1.2-0.26-2.12-0.79-2.75
			c-0.53-0.63-1.29-0.94-2.29-0.94c-0.99,0-1.79,0.42-2.4,1.26c-0.61,0.84-0.92,1.89-0.92,3.14h-6.49c0-1.72,0.43-3.3,1.29-4.76
			c0.86-1.45,2.05-2.59,3.57-3.41c1.52-0.82,3.23-1.23,5.11-1.23c3.02,0,5.35,0.7,6.98,2.09c1.63,1.4,2.45,3.4,2.45,6.01
			c0,1.1-0.21,2.17-0.62,3.22c-0.41,1.04-1.05,2.14-1.91,3.29c-0.86,1.15-2.26,2.68-4.18,4.6l-3.61,4.17h11.01V58.21z"/>
	</g>
	<g>
		<path class="st0" d="M60.6,47.28h2.84v5H60.6v5.94h-6.48v-5.94H43.31l-0.38-3.96l11.2-18.02v-0.06h6.48V47.28z M49.09,47.28h5.03
			v-8.61l-0.4,0.65L49.09,47.28z"/>
	</g>
</g>
</svg>
