<?xml version="1.0" encoding="utf-8"?>
<!-- Generator: Adobe Illustrator 26.1.0, SVG Export Plug-In . SVG Version: 6.00 Build 0)  -->
<svg version="1.1" id="Layer_1" xmlns="http://www.w3.org/2000/svg" xmlns:xlink="http://www.w3.org/1999/xlink" x="0px" y="0px"
	 viewBox="0 0 159.85 83.16" style="enable-background:new 0 0 159.85 83.16;" xml:space="preserve">
<style type="text/css">
	.st0{display:none;}
	.st1{display:inline;fill:none;stroke:#3C3C3B;stroke-width:2.0986;stroke-linecap:round;stroke-miterlimit:10;}
	.st2{fill:none;stroke:#3C3C3B;stroke-width:2.0986;stroke-linecap:round;stroke-miterlimit:10;}
	.st3{fill:#3C3C3B;stroke:#3C3C3B;stroke-width:2;stroke-linecap:round;stroke-linejoin:round;stroke-miterlimit:10;}
	.st4{fill:#FFFFFF;}
	.st5{fill:#3C3C3B;}
</style>
<g class="st0">
	<path class="st1" d="M106.13,25.72H73.74c-3.05,0-5.53-2.47-5.53-5.53v-2.17c0-1.3,1.05-2.34,2.34-2.34h38.75
		c1.3,0,2.34,1.05,2.34,2.34v2.17C111.65,23.25,109.18,25.72,106.13,25.72z"/>
	<path class="st1" d="M106.3,15.68H73.56V0.75c0-8.86,7.18-16.04,16.04-16.04h0.66c8.86,0,16.04,7.18,16.04,16.04V15.68z"/>
	<path class="st1" d="M109.31,15.68V2.26h2.14c0.9,0,1.64-0.73,1.64-1.64v0c0-0.9-0.73-1.64-1.64-1.64h-0.51
		c-0.9,0-1.64,0.73-1.64,1.64v1.64"/>
	<path class="st1" d="M70.55,15.68V2.26h-2.14c-0.9,0-1.64-0.73-1.64-1.64v0c0-0.9,0.73-1.64,1.64-1.64h0.51
		c0.9,0,1.64,0.73,1.64,1.64v1.64"/>
	<line class="st1" x1="89.4" y1="25.72" x2="89.4" y2="42.87"/>
	<path class="st1" d="M70.45,42.87c0-3.68,8.48-6.66,18.95-6.66s18.95,2.98,18.95,6.66"/>
	<circle class="st1" cx="108.35" cy="46.32" r="3.27"/>
	<circle class="st1" cx="89.4" cy="46.32" r="3.27"/>
	<circle class="st1" cx="70.45" cy="46.32" r="3.27"/>
</g>
<path class="st2" d="M39.42,29.95H28.92c-1.1,0-1.99-0.89-1.99-1.99V19.8c0-1.1,0.89-1.99,1.99-1.99h10.51
	c1.1,0,1.99,0.89,1.99,1.99v8.15C41.42,29.05,40.52,29.95,39.42,29.95z"/>
<path class="st2" d="M65.48,38.19h-5.4c-1.1,0-1.99-0.89-1.99-1.99v-8.15c0-1.1,0.89-1.99,1.99-1.99h5.4c1.1,0,1.99,0.89,1.99,1.99
	v8.15C67.47,37.3,66.58,38.19,65.48,38.19z"/>
<path class="st2" d="M58.85,39.26l3.26,0.03c2.8,0.03,5.05,2.32,5.02,5.13v0c-0.03,2.8-2.32,5.05-5.13,5.02l-3.26-0.03
	c-2.8-0.03-5.05-2.32-5.02-5.13v0C53.76,41.47,56.05,39.23,58.85,39.26z"/>
<path class="st2" d="M34.18,36.79l-0.26,3.61c-0.23,3.11-2.93,5.44-6.03,5.21h0c-3.11-0.23-5.44-2.93-5.21-6.03l0.26-3.61
	c0.23-3.11,2.93-5.44,6.03-5.21h0C32.07,30.99,34.4,33.69,34.18,36.79z"/>
<path class="st2" d="M49.25,17.81h6.65c1.2,0,2.18,0.98,2.18,2.18v11.4c0,1.2-0.98,2.18-2.18,2.18h-6.65c-1.2,0-2.18-0.98-2.18-2.18
	v-11.4C47.07,18.79,48.05,17.81,49.25,17.81z"/>
<path class="st2" d="M50.68,49.8l-15.57-3.42c-1.07-0.24-1.75-1.3-1.52-2.37l2.33-10.6c0.24-1.07,1.3-1.75,2.37-1.52l15.57,3.42
	c1.07,0.24,1.75,1.3,1.52,2.37l-2.33,10.6C52.82,49.36,51.75,50.04,50.68,49.8z"/>
<path class="st2" d="M65.56,10.03c0.36-0.04,0.76-0.05,1.05,0.17c0.26,0.19,0.38,0.52,0.48,0.83c0.4,1.23,0.69,2.5,0.87,3.78
	c0.08,0.57,0.14,1.16-0.06,1.7c-0.17,0.46-0.53,0.83-0.78,1.26c-0.48,0.8-0.61,1.75-0.87,2.65c-0.27,0.89-0.77,1.82-1.64,2.14
	c-1.19,0.44-2.44-0.42-3.43-1.22c-1.26-1.03-2.52-2.06-3.78-3.08c-0.21-0.17-0.43-0.35-0.55-0.59c-0.15-0.3-0.13-0.66-0.07-0.99
	C57.4,12.56,61.82,10.45,65.56,10.03z"/>
<g class="st0">
	<path class="st1" d="M135.66,52.34l-27.41-8.47c-1.61-0.5-2.5-2.2-2.01-3.81l8.69-28.12c0.5-1.61,2.2-2.5,3.81-2.01l27.41,8.47
		c1.61,0.5,2.5,2.2,2.01,3.81l-8.69,28.12C138.97,51.94,137.27,52.84,135.66,52.34z"/>
	<line class="st1" x1="113.26" y1="17.34" x2="146.49" y2="27.61"/>
	<line class="st1" x1="110.21" y1="27.23" x2="143.43" y2="37.49"/>
	<line class="st1" x1="107.15" y1="37.11" x2="140.38" y2="47.38"/>
	<circle class="st1" cx="131.31" cy="17.85" r="1.56"/>
	<circle class="st1" cx="128.35" cy="27.42" r="1.56"/>
	<circle class="st1" cx="125.13" cy="37.82" r="1.56"/>
	<path class="st1" d="M135.12,52.17c-0.44,1.43-1.96,2.24-3.4,1.79s-2.24-1.97-1.79-3.4"/>
	<path class="st1" d="M114.46,45.79c-0.44,1.43-1.97,2.24-3.4,1.79c-1.43-0.44-2.24-1.97-1.79-3.4"/>
</g>
<path class="st2" d="M18.34,50.73h14.89c1.04,0,1.88-0.84,1.88-1.88v-0.59c0-1.04-0.84-1.88-1.88-1.88H18.34
	c-1.04,0-1.88,0.84-1.88,1.88v0.59C16.46,49.89,17.3,50.73,18.34,50.73z"/>
<line class="st2" x1="10.24" y1="50.73" x2="149.61" y2="50.73"/>
<g>
	<rect x="3.25" y="49.82" class="st3" width="155.6" height="30.16"/>
	<rect x="3.25" y="49.82" class="st3" width="4.5" height="32.34"/>
	<path class="st3" d="M6.3,56.94L2.74,56C1.72,55.72,1,54.79,1,53.73v-3.91h5.3V56.94z"/>
	<rect x="22.14" y="49.82" class="st3" width="4.5" height="32.34"/>
	<rect x="41.03" y="49.82" class="st3" width="4.5" height="32.34"/>
	<rect x="59.91" y="49.82" class="st3" width="4.5" height="32.34"/>
	<rect x="78.8" y="49.82" class="st3" width="4.5" height="32.34"/>
	<rect x="97.69" y="49.82" class="st3" width="4.5" height="32.34"/>
	<rect x="116.57" y="49.82" class="st3" width="4.5" height="32.34"/>
	<rect x="135.46" y="49.82" class="st3" width="4.5" height="32.34"/>
	<rect x="154.35" y="49.82" class="st3" width="4.5" height="32.34"/>
</g>
<g>
	<g>
		<polygon class="st4" points="117.35,68.98 116.93,69.52 116.92,69.52 116.92,68.98 116.45,68.98 116.45,70.53 116.92,70.53 
			116.92,70.07 117.06,69.93 117.44,70.53 118.03,70.53 117.38,69.59 117.94,68.98 		"/>
		<g>
			<path class="st4" d="M119.51,70.18c0.12,0,0.31-0.08,0.31-0.43c0-0.34-0.19-0.43-0.31-0.43c-0.12,0-0.31,0.08-0.31,0.43
				C119.2,70.1,119.39,70.18,119.51,70.18 M119.51,68.95c0.47,0,0.79,0.34,0.79,0.81c0,0.47-0.31,0.81-0.79,0.81
				c-0.47,0-0.79-0.34-0.79-0.81C118.73,69.28,119.04,68.95,119.51,68.95"/>
		</g>
		<polygon class="st4" points="122.09,68.98 122.09,69.81 122.09,69.81 121.64,68.98 121.15,68.98 121.15,70.53 121.6,70.53 
			121.6,69.69 121.61,69.69 122.08,70.53 122.55,70.53 122.55,68.98 		"/>
		<polygon class="st4" points="123.37,68.98 123.37,69.38 123.81,69.38 123.81,70.53 124.29,70.53 124.29,69.38 124.72,69.38 
			124.72,68.98 		"/>
		<polygon class="st4" points="125.55,68.98 125.55,70.53 126.85,70.53 126.85,70.13 126.02,70.13 126.02,69.94 126.75,69.94 
			126.75,69.57 126.02,69.57 126.02,69.38 126.83,69.38 126.83,68.98 		"/>
		<g>
			<path class="st4" d="M128.8,69.97c0,0.43-0.19,0.59-0.58,0.59c-0.39,0-0.57-0.22-0.57-0.56v-0.13h0.43v0.09
				c0,0.12,0,0.23,0.13,0.23c0.12,0,0.11-0.15,0.11-0.22v-1h0.48V69.97z"/>
		</g>
		<polygon class="st4" points="130.65,68.98 130.65,69.81 130.64,69.81 130.19,68.98 129.7,68.98 129.7,70.53 130.15,70.53 
			130.15,69.69 130.16,69.69 130.63,70.53 131.1,70.53 131.1,68.98 		"/>
		<polygon class="st4" points="132,68.98 132,70.53 133.3,70.53 133.3,70.13 132.47,70.13 132.47,69.94 133.21,69.94 133.21,69.57 
			132.47,69.57 132.47,69.38 133.28,69.38 133.28,68.98 		"/>
		<g>
			<path class="st4" d="M134.65,69.66h0.25c0.09,0,0.21-0.02,0.21-0.15c0-0.1-0.05-0.15-0.24-0.15h-0.22V69.66z M134.18,68.98h0.91
				c0.27,0,0.51,0.15,0.51,0.44c0,0.16-0.07,0.33-0.23,0.39c0.13,0.05,0.21,0.19,0.23,0.39c0.01,0.07,0.01,0.26,0.05,0.33h-0.48
				c-0.02-0.08-0.03-0.16-0.04-0.24c-0.01-0.15-0.03-0.3-0.21-0.3h-0.25v0.54h-0.48V68.98z"/>
		</g>
		<polygon class="st4" points="137.22,68.98 136.95,69.55 136.69,68.98 136.17,68.98 136.71,69.96 136.71,70.53 137.19,70.53 
			137.19,69.96 137.74,68.98 		"/>
		<g>
			<polygon class="st4" points="119.75,67.83 119.75,67.83 121.51,67.83 121.51,67.83 			"/>
			<polygon class="st4" points="142.46,57.53 127.9,59.26 142.46,57.53 			"/>
			<polygon class="st4" points="111.6,67.83 111.6,67.83 117.53,67.83 117.53,67.83 			"/>
			<polygon class="st4" points="116.99,60.57 114.37,64.04 116.99,60.57 			"/>
			<polygon class="st4" points="114.37,64.04 111.52,67.83 111.6,67.83 111.6,67.73 			"/>
			<polygon class="st4" points="140,64.32 143.51,57.4 143.51,57.4 142.46,57.53 143.45,57.53 			"/>
			<path class="st4" d="M140.74,59.3c0-0.08-0.08-0.09-0.14-0.09h-0.13v0.19h0.12C140.67,59.4,140.74,59.39,140.74,59.3z"/>
			<polygon class="st4" points="116.99,60.57 116.99,60.57 127.9,59.26 			"/>
			<path class="st4" d="M140.59,59.91c0.25,0,0.44-0.19,0.44-0.48c0-0.28-0.19-0.48-0.44-0.48c-0.25,0-0.44,0.2-0.44,0.48
				C140.15,59.7,140.32,59.91,140.59,59.91z M140.37,59.12h0.24c0.15,0,0.23,0.05,0.23,0.18c0,0.12-0.07,0.16-0.17,0.17l0.18,0.28
				h-0.12l-0.17-0.27h-0.1v0.27h-0.1V59.12z"/>
			<path class="st4" d="M116.38,66.01v-0.18h1.82v0.31c0,0.33,0.14,0.59,0.47,0.59c0.35,0,0.46-0.3,0.46-0.59
				c0-0.42-0.17-0.53-0.4-0.67c-0.25-0.14-0.59-0.26-0.93-0.44c-1.02-0.5-1.35-0.87-1.35-1.87c0-0.94,0.27-1.43,0.71-1.74
				c0.33-0.22,0.79-0.41,1.53-0.41c1.89,0,2.21,0.94,2.21,2.05h-1.76v-0.27c0-0.29-0.11-0.54-0.44-0.54c-0.29,0-0.43,0.23-0.43,0.51
				c0,1.34,2.79,0.64,2.79,3.04c0,1.15-0.4,1.79-1.31,2.04h1.76v-6.69h1.88v6.69h0.64v-6.69h4.03v1.52h-2.16v1.03h2.02v1.46h-2.02
				v1.16h2.24v1.52h1.62c-1.12-0.43-1.16-1.84-1.16-3.34c0-1.91,0.1-3.49,2.39-3.49c1.85,0,2.26,0.92,2.26,2.27h-1.76v-0.27
				c0-0.5-0.11-0.76-0.48-0.76c-0.45,0-0.48,0.41-0.48,0.82v2.76c0,0.41,0.04,0.9,0.49,0.9c0.45,0,0.53-0.35,0.53-0.84v-0.46h-0.53
				v-1.24h2.3v3.65h0.62v-6.69h1.88v5.18h2.04v1.52h0.37l1.79-3.52l3.45-6.79h-0.98l-14.56,1.74l-10.92,1.3l-2.62,3.48l-2.78,3.69
				v0.1h5.94C116.78,67.61,116.38,67.06,116.38,66.01z M140.59,58.86c0.3,0,0.56,0.23,0.56,0.58c0,0.35-0.26,0.58-0.56,0.58
				c-0.33,0-0.57-0.25-0.57-0.58C140.02,59.09,140.29,58.86,140.59,58.86z"/>
			<path class="st4" d="M140.48,59.49h0.1l0.17,0.27h0.12l-0.18-0.28c0.09-0.01,0.17-0.06,0.17-0.17c0-0.13-0.08-0.18-0.23-0.18
				h-0.24v0.64h0.1V59.49z M140.48,59.21h0.13c0.06,0,0.14,0.01,0.14,0.09c0,0.09-0.07,0.1-0.15,0.1h-0.12V59.21z"/>
			<path class="st4" d="M140.59,60.01c0.3,0,0.56-0.23,0.56-0.58c0-0.35-0.26-0.58-0.56-0.58c-0.31,0-0.57,0.23-0.57,0.58
				C140.02,59.76,140.26,60.01,140.59,60.01z M140.59,58.96c0.25,0,0.44,0.2,0.44,0.48c0,0.28-0.19,0.48-0.44,0.48
				c-0.27,0-0.44-0.21-0.44-0.48C140.15,59.15,140.34,58.96,140.59,58.96z"/>
		</g>
	</g>
</g>
<g>
	<path class="st5" d="M101.5,39.83c-9.38,0-18.67,0-28.03,0c0,0.27,0,0.51,0,0.75c0,4.46,0,8.93,0,13.39c0,1.02-0.23,1.25-1.25,1.25
		c-1.03,0-2.07,0.01-3.1,0c-0.78-0.01-1.06-0.29-1.07-1.07c0-5.01-0.01-10.02,0.01-15.04c0-0.29,0.09-0.6,0.21-0.87
		c1.53-3.47,3.09-6.93,4.62-10.4c0.25-0.56,0.6-0.82,1.21-0.8c0.71,0.03,1.42-0.01,2.13,0.01c0.37,0.01,0.5-0.12,0.49-0.49
		c-0.01-1.38-0.02-2.76,0-4.14c0.01-0.42-0.17-0.52-0.54-0.51c-0.73,0.02-1.46,0.01-2.19,0c-0.81-0.01-1.12-0.31-1.12-1.1
		c-0.01-4.59-0.05-9.17,0.01-13.76c0.06-4.07,3.11-7.02,7.17-7.04C85.03,0,90.02,0,95.02,0.01c3.99,0.01,7.07,3.07,7.09,7.05
		c0.02,4.57,0,9.13,0,13.7c0,0.87-0.26,1.13-1.12,1.14c-0.73,0.01-1.46,0.02-2.19,0c-0.4-0.01-0.53,0.13-0.52,0.53
		c0.02,1.36,0.02,2.72,0,4.08c-0.01,0.45,0.17,0.55,0.57,0.54c0.73-0.02,1.46,0,2.19-0.01c0.48,0,0.8,0.21,1,0.65
		c1.59,3.58,3.19,7.15,4.77,10.73c0.12,0.27,0.15,0.59,0.15,0.89c0.01,4.89,0.01,9.78,0.01,14.67c0,0.98-0.26,1.24-1.22,1.24
		c-1.01,0-2.03,0-3.04,0c-0.92,0-1.19-0.27-1.19-1.2c0-4.44,0-8.89,0-13.33C101.5,40.42,101.5,40.16,101.5,39.83z M100.36,20.13
		c0-0.31,0-0.55,0-0.79c0-4,0-7.99,0-11.99c0-3.34-2.24-5.59-5.57-5.59c-4.87,0-9.74,0-14.61,0c-3.28,0-5.56,2.25-5.57,5.54
		c-0.01,4.06,0,8.12,0,12.17c0,0.21,0.02,0.43,0.04,0.66C83.23,20.13,91.75,20.13,100.36,20.13z M104.66,38.03
		c-0.06-0.19-0.07-0.29-0.11-0.38c-1.26-2.83-2.53-5.66-3.78-8.51c-0.17-0.38-0.43-0.36-0.74-0.36c-8.36,0-16.72,0-25.08-0.01
		c-0.44,0-0.64,0.15-0.81,0.54c-1.18,2.69-2.39,5.37-3.59,8.06c-0.09,0.19-0.15,0.4-0.25,0.65C81.79,38.03,93.18,38.03,104.66,38.03
		z M87.45,27.04c2.82,0,5.64-0.01,8.45,0.01c0.48,0,0.63-0.15,0.62-0.63c-0.03-1.3-0.03-2.6,0-3.89c0.01-0.47-0.12-0.63-0.61-0.63
		c-5.64,0.02-11.27,0.01-16.91,0c-0.43,0-0.56,0.14-0.55,0.56c0.02,1.28,0.04,2.56-0.01,3.83c-0.02,0.57,0.13,0.76,0.73,0.76
		C81.93,27.02,84.69,27.04,87.45,27.04z M69.82,53.42c0.67,0,1.26,0,1.87,0c0-4.55,0-9.06,0-13.58c-0.65,0-1.24,0-1.87,0
		C69.82,44.39,69.82,48.88,69.82,53.42z M103.26,39.84c0,0.28,0,0.52,0,0.76c0,3.89,0,7.78,0,11.68c0,1.21,0,1.17,1.23,1.21
		c0.6,0.02,0.74-0.18,0.73-0.76c-0.02-4.09-0.01-8.19-0.02-12.28c0-0.19-0.02-0.39-0.04-0.61
		C104.52,39.84,103.92,39.84,103.26,39.84z"/>
</g>
<path class="st5" d="M112.3,25.58c2.29-6.05,4.59-12.11,6.88-18.17c0.19-0.52,0.75-0.81,1.31-0.6c10.37,3.95,20.75,7.88,31.13,11.81
	c0.42,0.16,0.67,0.43,0.68,0.88c0,0.19-0.06,0.39-0.13,0.57c-3.23,8.54-6.47,17.08-9.71,25.62c-1.32,3.49-2.65,6.98-3.97,10.47
	c-0.29,0.77-0.74,0.97-1.5,0.68c-10.31-3.91-20.62-7.82-30.93-11.72c-0.55-0.21-0.8-0.56-0.75-1.06c0.01-0.1,0.05-0.21,0.09-0.31
	C107.7,37.7,110,31.64,112.3,25.58z M120.63,8.86c-4.4,11.62-8.8,23.22-13.2,34.81c9.86,3.74,19.71,7.47,29.56,11.21
	c4.4-11.61,8.8-23.21,13.2-34.81C140.34,16.33,130.49,12.6,120.63,8.86z"/>
<path class="st5" d="M121.72,11.28c8.69,3.29,17.35,6.58,26.04,9.87C143.8,31.58,139.85,42,135.9,52.43
	c-8.68-3.29-17.35-6.58-26.04-9.87C113.81,32.14,117.76,21.72,121.72,11.28z M122.66,45.45c2.09-5.53,4.18-11.03,6.27-16.53
	c-3.49-1.32-6.96-2.64-10.44-3.96c-2.09,5.52-4.18,11.02-6.27,16.53C115.71,42.81,119.18,44.13,122.66,45.45z M134.83,50.06
	c2.09-5.53,4.18-11.03,6.27-16.53c-3.48-1.32-6.95-2.63-10.42-3.95c-2.09,5.52-4.18,11.02-6.27,16.53
	C127.89,47.43,131.35,48.74,134.83,50.06z M119.15,23.2c3.5,1.33,6.98,2.64,10.45,3.96c1.21-3.19,2.41-6.37,3.62-9.55
	c-3.49-1.32-6.97-2.64-10.45-3.96C121.56,16.84,120.35,20.01,119.15,23.2z M141.76,31.78c1.21-3.2,2.42-6.38,3.62-9.56
	c-3.49-1.32-6.95-2.63-10.42-3.95c-1.21,3.19-2.41,6.37-3.62,9.56C134.82,29.15,138.28,30.46,141.76,31.78z"/>
</svg>
