<?xml version="1.0" encoding="UTF-8"?>
<svg width="356px" height="362px" viewBox="0 0 356 362" version="1.1" xmlns="http://www.w3.org/2000/svg" xmlns:xlink="http://www.w3.org/1999/xlink">
    <!-- Generator: Sketch 52.6 (67491) - http://www.bohemiancoding.com/sketch -->
    <title>kolecko</title>
    <desc>Created with Sketch.</desc>
    <g id="Page-1" stroke="none" stroke-width="1" fill="none" fill-rule="evenodd">
        <g id="kolecko" fill="#3C3C3B" fill-rule="nonzero">
            <path d="M45.2,247.26 C42.88,242.11 40.66,237.13 38.41,232.17 C26.66,206.26 14.9,180.36 3.15,154.45 C-0.64,146.09 2.85,140.21 11.93,139.29 C13.31,139.15 14.86,138.06 15.83,136.96 C44.19,104.66 72.49,72.31 100.8,39.96 C108.04,31.69 115.29,23.42 122.53,15.14 C140.16,-5.04 166.02,-5.03 183.65,15.09 C219.06,55.5 254.51,95.87 289.95,136.26 C290.59,136.99 291.28,137.69 292.3,138.77 C293.61,136.53 294.8,134.54 295.95,132.52 C297.92,129.07 300.83,127.37 304.85,127.38 C318.22,127.42 331.59,127.35 344.96,127.41 C351.1,127.44 355.27,131.43 355.16,136.96 C355.05,142.32 350.88,146.16 344.97,146.19 C334.35,146.24 323.73,146.27 313.11,146.15 C310.86,146.13 309.54,146.71 308.37,148.76 C286.06,187.92 263.66,227.02 241.37,266.19 C240.45,267.81 240.08,269.97 240.09,271.87 C240.19,297.86 240.37,323.85 240.64,349.84 C240.69,354.29 239.79,358.06 235.56,360.26 C231.16,362.54 227.49,360.95 223.84,358.18 C196.86,337.73 169.81,317.38 142.84,296.92 C140.87,295.43 139.12,294.89 136.7,295.45 C129.78,297.07 122.82,298.55 115.84,299.92 C113.62,300.36 112.86,301.23 112.79,303.6 C111.87,331.9 93.47,353.47 65.87,358.79 C35.55,364.64 4.38,342.05 0.54,311.45 C-3.23,281.36 13.71,256.19 43.18,248.09 C43.74,247.92 44.29,247.63 45.2,247.26 Z M108.86,281.93 C109.57,281.89 110.07,281.93 110.54,281.83 C147.26,273.97 183.97,266.08 220.71,258.29 C223.2,257.76 224.92,256.9 226.24,254.57 C243.76,223.75 261.37,192.99 278.95,162.21 C279.6,161.07 280.17,159.88 280.9,158.48 C195.71,158.48 110.98,158.48 25.99,158.48 C26.22,159.24 26.3,159.72 26.5,160.15 C39.35,188.57 52.2,216.99 65.13,245.37 C65.56,246.32 66.73,247.32 67.74,247.56 C87.09,252.11 100.64,263.59 108.86,281.93 Z M267.27,139.28 C266,137.73 265.27,136.77 264.48,135.87 C232.85,99.82 201.22,63.76 169.58,27.72 C159.21,15.91 147.03,15.82 136.69,27.61 C104.9,63.86 73.16,100.15 41.41,136.43 C40.75,137.19 40.22,138.07 39.35,139.28 C115.46,139.28 190.88,139.28 267.27,139.28 Z M93.37,304.92 C92.04,305.16 90.94,305.33 89.85,305.56 C79.36,307.78 68.88,310.06 58.37,312.21 C53.16,313.28 48.31,310.19 47.15,305.3 C45.98,300.33 48.82,295.45 53.9,293.96 C56.05,293.33 58.27,292.95 60.47,292.48 C70.16,290.4 79.85,288.33 89.61,286.25 C82.94,270.2 62.38,261.57 44.88,267.18 C26.52,273.06 15.35,292.41 19.61,310.95 C24.11,330.52 42.31,343.21 61.77,340.33 C79.44,337.71 94.48,321.11 93.37,304.92 Z M164.46,289.63 C183.75,304.19 202.43,318.27 221.12,332.38 C221.12,313.82 221.12,295.84 221.12,277.53 C202.1,281.59 183.73,285.51 164.46,289.63 Z" id="Shape" transform="translate(177.590537, 180.676063) scale(-1, 1) translate(-177.590537, -180.676063) "></path>
        </g>
    </g>
</svg>