<?xml version="1.0" encoding="UTF-8"?>
<svg width="214px" height="249px" viewBox="0 0 214 249" version="1.1" xmlns="http://www.w3.org/2000/svg" xmlns:xlink="http://www.w3.org/1999/xlink">
    <!-- Generator: Sketch 52.6 (67491) - http://www.bohemiancoding.com/sketch -->
    <title>48tun</title>
    <desc>Created with Sketch.</desc>
    <g id="Page-1" stroke="none" stroke-width="1" fill="none" fill-rule="evenodd">
        <g id="48tun" fill="#424242">
            <path d="M105.44,194.58 C105.44,193.36 104.83,192.75 103.59,192.75 L102.33,192.75 L102.33,196.55 L103.44,196.55 C104.72,196.56 105.44,196 105.44,194.58 Z" id="Path"></path>
            <path d="M91.48,209.01 L90.37,209.01 L90.37,213.02 L91.55,213.02 C92.6,213.02 93.32,212.39 93.32,211.04 C93.33,209.73 92.81,209.01 91.48,209.01 Z" id="Path"></path>
            <polygon id="Path" points="113.98 193.09 113.95 193.09 112.67 199.01 115.26 199.01"></polygon>
            <path d="M212.17,207.7 C212.17,207.7 213.64,205.29 213.64,198.15 C213.64,191.01 213.01,185.44 213.01,185.44 L211.54,184.81 C211.54,184.81 210.81,179.14 209.86,174.63 C208.98,170.41 206.54,161.15 206.22,159.95 L209.72,159.95 C210.32,159.95 210.76,159.31 210.6,158.66 C210.55,158.44 210.48,158.19 210.41,157.92 C210.05,156.62 209.38,154.86 206.78,153.24 C204.18,151.62 199.52,151.52 199.52,151.52 C197.45,150.76 194.97,150.12 192.37,149.64 L191.92,143.8 C191.9,143.51 191.66,143.29 191.38,143.29 L188.23,143.29 C187.94,143.29 187.7,143.52 187.69,143.8 L187.3,148.89 C185.34,148.68 183.4,148.57 181.62,148.57 L164.41,148.57 C162.94,148.57 158.42,154.35 158.42,154.35 C158.42,154.35 156.85,162.64 156.85,173.99 L156.85,198.14 C156.85,198.14 156.34,198.08 155.74,198.41 L155.74,150.55 L154.93,150.55 C154.87,147.7 154.56,145.83 153.95,144.44 C153.37,143.14 152.51,142.22 151.31,141.63 L173.89,134.48 C178.4,133.21 181.55,129.06 181.55,124.37 L181.55,10.5 C181.55,4.71 176.84,0 171.05,0 L41.26,0 C35.47,0 30.76,4.71 30.76,10.5 L30.76,124.37 C30.76,129.07 33.92,133.23 38.45,134.49 L68.48,142.83 L68.23,144.15 L68.1,144.28 C67.64,144.04 67.06,144.11 66.68,144.49 L65.62,145.55 C65.24,145.93 65.16,146.51 65.41,146.97 L64.62,147.76 C64.16,147.52 63.58,147.59 63.2,147.97 L62.14,149.03 C61.76,149.41 61.68,149.99 61.93,150.45 L61.46,150.91 L52.09,150.91 C51.65,150.91 51.22,151.09 50.92,151.42 L25.53,178.64 L27.77,180.73 L28.69,179.75 L30.39,181.77 L17.72,192.47 C14.41,195.27 13.99,200.22 16.79,203.53 L18.34,205.37 C18.88,206.01 19.83,206.09 20.47,205.55 L23.8,202.74 L23.8,204.71 L24.81,204.71 C21.74,206.69 17.29,209.64 17.29,209.64 L14.49,213.55 L12.3,213.55 C11.23,213.55 10.2,213.96 9.43,214.7 L4.02,219.88 C3.18,220.68 2.7,221.8 2.7,222.96 L2.7,230.53 C2.7,231.28 2.09,231.88 1.35,231.88 C0.6,231.88 0,232.49 0,233.23 L0,235.68 C0,236.43 0.61,237.03 1.35,237.03 L7.77,237.03 C10.04,237.03 11.88,235.19 11.88,232.92 L11.88,230.04 L13.29,230.04 L13.29,228.71 C13.29,219.11 21.1,211.3 30.7,211.3 L69.91,211.3 C79.51,211.3 87.32,219.11 87.32,228.71 L87.32,230.04 L89.98,230.04 L89.98,228.71 C89.98,228.54 89.97,228.38 89.96,228.21 L91.66,228.21 L91.66,232.06 L118.32,232.06 L118.32,233.74 L145.93,233.74 L145.93,234.48 L150.43,234.48 L150.43,222.74 C150.43,213.77 158.15,209.39 161.29,207.99 L170.49,207.99 C184.25,207.99 184.98,222.8 184.98,222.8 L188.24,225.42 L191.91,225.42 C192.64,225.42 191.91,229.31 191.91,229.31 L191.91,234.04 L201.25,234.04 L201.25,228.16 L203.98,228.16 C203.98,228.16 213.01,226.06 213.01,223.23 L213.01,210 C213.02,208.43 212.17,207.7 212.17,207.7 Z M56.64,203.98 L48.65,203.98 L48.65,202.04 L53.51,192.97 L48.99,192.97 L48.99,190.79 L56.58,190.79 L56.58,192.8 L51.65,201.79 L56.65,201.79 L56.65,203.98 L56.64,203.98 Z M126.42,163.59 L126.42,165.77 L121.99,165.77 L121.99,169.31 L126.88,169.31 L126.88,171.49 L119.33,171.49 L119.33,158.31 L126.7,158.31 L126.7,160.49 L121.99,160.49 L121.99,163.59 L126.42,163.59 Z M123.25,174.57 L126.24,174.57 L127.98,179.67 L128.02,179.67 L129.87,174.57 L132.75,174.57 L129.33,182.56 L129.33,187.75 L126.67,187.75 L126.67,182.56 L123.25,174.57 Z M91.8,214.98 L90.59,214.98 L90.38,214.98 L90.38,215.15 L90.38,220.24 L88.79,220.24 L88.1,220.24 L88.05,220.24 L87.72,220.24 L87.72,219.47 L87.72,217.98 L87.72,214.16 L87.72,207.06 L92.37,207.06 C95.08,207.06 95.99,209.04 95.99,211.01 C95.99,213.74 94.31,214.98 91.8,214.98 Z M95.82,192.98 L95.82,203.98 L93.16,203.98 L93.16,192.98 L90.28,192.98 L90.28,190.8 L98.7,190.8 L98.7,192.98 L95.82,192.98 Z M95.38,169.8 C96.19,169.8 96.97,169.28 96.97,168.18 C96.97,167 96.38,166.52 94.61,165.93 C92.25,165.14 91.16,164.12 91.16,161.94 C91.16,159.36 92.71,158.06 95.24,158.06 C97.6,158.06 99.32,159.08 99.32,161.6 L99.32,161.97 L96.77,161.97 C96.77,160.72 96.36,160.01 95.33,160.01 C94.13,160.01 93.82,160.75 93.82,161.54 C93.82,162.35 94.06,162.87 95.19,163.33 L97.24,164.22 C99.23,165.11 99.75,166.08 99.75,167.71 C99.75,170.5 98.05,171.75 95.17,171.75 C92.16,171.75 90.98,170.35 90.98,167.91 L90.98,167.37 L93.64,167.37 L93.64,167.76 C93.62,169 93.98,169.8 95.38,169.8 Z M33.76,10.5 C33.76,6.36 37.12,3 41.26,3 L171.04,3 C175.18,3 178.54,6.36 178.54,10.5 L178.54,124.37 C178.54,127.73 176.28,130.7 173.05,131.6 L114.07,150.27 C111.58,150.96 108.94,150.96 106.45,150.27 L73.2,141.03 L69.15,139.91 L39.26,131.61 C36.03,130.71 33.77,127.74 33.77,124.38 L33.77,10.5 L33.76,10.5 Z M109.96,160.49 L109.96,158.31 L118.38,158.31 L118.38,160.49 L115.5,160.49 L115.5,171.49 L112.84,171.49 L112.84,160.49 L109.96,160.49 Z M109.24,174.57 L111.9,174.57 L111.9,187.75 L109.24,187.75 L109.24,174.57 Z M94.27,174.57 L94.27,176.75 L89.56,176.75 L89.56,179.85 L94,179.85 L94,182.03 L89.57,182.03 L89.57,185.57 L94.46,185.57 L94.46,187.75 L86.91,187.75 L86.91,174.57 L94.27,174.57 Z M98.15,177.23 L98.11,177.23 L98.11,187.75 L95.67,187.75 L95.67,174.57 L99.62,174.57 L101.5,183.88 L101.54,183.88 L103.44,174.57 L107.37,174.57 L107.37,187.75 L104.93,187.75 L104.93,177.23 L104.89,177.23 L102.55,187.75 L100.48,187.75 L98.15,177.23 Z M99.68,190.8 L104.59,190.8 C106.79,190.8 108.1,191.93 108.1,194.2 C108.1,195.97 107.4,197.14 105.9,197.45 L105.9,197.49 C107.71,197.73 107.97,198.73 108.02,201.52 C108.04,202.92 108.11,203.61 108.61,203.88 L108.61,203.99 L105.73,203.99 C105.45,203.62 105.42,203.12 105.4,202.61 L105.33,200.08 C105.27,199.05 104.85,198.42 103.76,198.42 L102.34,198.42 L102.34,204 L99.68,204 L99.68,190.8 Z M104.94,171.76 C102.78,171.76 100.73,171.04 100.73,167.51 L100.73,158.32 L103.39,158.32 L103.39,167.51 C103.39,168.82 103.69,169.8 104.94,169.8 C106.2,169.8 106.49,168.82 106.49,167.51 L106.49,158.32 L109.15,158.32 L109.15,167.51 C109.15,170.85 107.1,171.76 104.94,171.76 Z M112.32,190.8 L115.61,190.8 L119.1,203.98 L116.33,203.98 L115.72,201.19 L112.21,201.19 L111.6,203.98 L108.83,203.98 L112.32,190.8 Z M116.16,178.52 L116.12,178.52 L116.12,187.75 L113.68,187.75 L113.68,174.57 L116.75,174.57 L119.96,183.6 L120,183.6 L120,174.57 L122.44,174.57 L122.44,187.75 L119.41,187.75 L116.16,178.52 Z M124.41,157.54 L121.75,157.54 L120.31,154.88 L122.27,154.88 L123.12,156.45 L124.01,154.88 L125.86,154.88 L124.41,157.54 Z M97.65,150.93 L80.65,150.93 L80.19,150.47 C80.43,150.01 80.36,149.43 79.98,149.05 L78.92,147.99 C78.54,147.61 77.96,147.53 77.5,147.78 L76.71,146.99 C76.95,146.53 76.88,145.95 76.5,145.57 L75.8,144.87 L97.65,150.93 Z M74.76,145.04 L74.58,144.86 C74.7,144.86 74.83,144.91 74.92,145 L75.98,146.06 C76.07,146.16 76.12,146.28 76.12,146.4 L75.99,146.27 C75.85,146.13 75.63,146.13 75.49,146.27 C75.35,146.41 75.35,146.63 75.49,146.77 L75.62,146.9 C75.5,146.9 75.37,146.85 75.28,146.75 L74.22,145.69 C74.13,145.6 74.08,145.47 74.08,145.35 L74.26,145.53 C74.4,145.67 74.62,145.67 74.76,145.53 C74.9,145.41 74.9,145.18 74.76,145.04 Z M74.78,147.27 C75.16,147.65 75.74,147.73 76.2,147.48 L76.99,148.27 C76.75,148.73 76.82,149.31 77.2,149.69 L78.26,150.75 C78.33,150.82 78.4,150.88 78.48,150.92 L73.89,150.92 L73.55,146 C73.6,146.07 73.65,146.14 73.72,146.21 L74.78,147.27 Z M78.24,148.53 L78.06,148.35 C78.18,148.35 78.31,148.4 78.4,148.49 L79.46,149.55 C79.56,149.65 79.6,149.77 79.61,149.9 L79.48,149.77 C79.34,149.63 79.12,149.63 78.98,149.77 C78.84,149.91 78.84,150.13 78.98,150.27 L79.11,150.4 C78.99,150.4 78.86,150.35 78.77,150.25 L77.71,149.19 C77.62,149.1 77.57,148.97 77.57,148.85 L77.75,149.03 C77.89,149.17 78.11,149.17 78.25,149.03 C78.38,148.89 78.38,148.67 78.24,148.53 Z M77.72,185.82 L82.58,176.75 L78.06,176.75 L78.06,174.57 L85.65,174.57 L85.65,176.58 L80.72,185.57 L85.72,185.57 L85.72,187.75 L77.73,187.75 L77.73,185.82 L77.72,185.82 Z M73.5,144.79 C73.49,144.81 73.48,144.84 73.47,144.86 L73.46,144.75 L73.5,144.79 Z M69.71,174.57 L73.2,187.75 L70.43,187.75 L69.82,184.96 L66.31,184.96 L65.7,187.75 L62.93,187.75 L66.42,174.57 L69.71,174.57 Z M66.12,146.07 L67.18,145.01 C67.27,144.92 67.4,144.87 67.52,144.87 L67.34,145.05 C67.2,145.19 67.2,145.41 67.34,145.55 C67.48,145.69 67.7,145.69 67.84,145.55 L67.99,145.4 L67.95,145.63 C67.93,145.66 67.91,145.69 67.88,145.71 L66.82,146.77 C66.73,146.86 66.6,146.91 66.48,146.92 L66.61,146.79 C66.75,146.65 66.75,146.43 66.61,146.29 C66.47,146.15 66.25,146.15 66.11,146.29 L65.98,146.42 C65.98,146.29 66.03,146.16 66.12,146.07 Z M64.9,149.7 C65.28,149.32 65.35,148.74 65.11,148.28 L65.9,147.49 C66.36,147.73 66.94,147.66 67.32,147.28 L67.7,146.9 L66.93,150.94 L63.61,150.94 C63.69,150.89 63.76,150.83 63.83,150.77 L64.9,149.7 Z M62.63,149.55 L63.69,148.49 C63.78,148.4 63.91,148.35 64.03,148.35 L63.85,148.53 C63.71,148.67 63.71,148.89 63.85,149.03 C63.99,149.17 64.21,149.17 64.35,149.03 L64.53,148.85 C64.53,148.97 64.48,149.1 64.39,149.19 L63.33,150.25 C63.23,150.34 63.11,150.39 62.99,150.4 L63.12,150.27 C63.26,150.13 63.26,149.91 63.12,149.77 C62.98,149.63 62.76,149.63 62.62,149.77 L62.49,149.9 C62.49,149.77 62.54,149.65 62.63,149.55 Z M66.31,204.24 C62.32,204.24 61.82,201.4 61.82,197.39 C61.82,193.38 62.32,190.54 66.31,190.54 C70.11,190.54 70.39,193.33 70.39,195.25 L67.73,195.25 C67.73,193.33 67.34,192.5 66.14,192.5 C64.81,192.5 64.48,193.83 64.48,197.58 C64.48,201.57 65.03,202.29 66.18,202.29 C67.12,202.29 67.84,201.81 67.84,198.95 L70.5,198.95 C70.5,201.8 69.8,204.24 66.31,204.24 Z M79.4,203.98 L71.85,203.98 L71.85,190.8 L79.22,190.8 L79.22,192.98 L74.5,192.98 L74.5,196.08 L78.93,196.08 L78.93,198.26 L74.5,198.26 L74.5,201.8 L79.39,201.8 L79.39,203.98 L79.4,203.98 Z M83.03,194.75 L82.99,194.75 L82.99,203.98 L80.55,203.98 L80.55,190.8 L83.61,190.8 L86.82,199.83 L86.86,199.83 L86.86,190.8 L89.3,190.8 L89.3,203.98 L86.27,203.98 L83.03,194.75 Z M106.07,220.24 L103.19,220.24 C102.91,219.87 102.88,219.37 102.86,218.86 L102.79,216.33 C102.73,215.3 102.31,214.67 101.22,214.67 L99.8,214.67 L99.8,220.25 L97.14,220.25 L97.14,207.07 L102.05,207.07 C104.25,207.07 105.56,208.2 105.56,210.47 C105.56,212.24 104.86,213.41 103.36,213.72 L103.36,213.76 C105.17,214 105.43,215 105.48,217.79 C105.5,219.19 105.57,219.88 106.07,220.15 L106.07,220.24 Z M113.78,220.24 L113.17,217.45 L109.66,217.45 L109.05,220.24 L106.28,220.24 L109.77,207.06 L113.06,207.06 L116.55,220.24 L113.78,220.24 Z M125.7,220.24 L123.04,220.24 L123.04,214.39 L119.94,214.39 L119.94,220.24 L117.28,220.24 L117.28,207.06 L119.94,207.06 L119.94,212.1 L123.04,212.1 L123.04,207.06 L125.7,207.06 L125.7,220.24 Z M132.59,215.05 L132.59,220.24 L129.93,220.24 L129.93,215.05 L126.51,207.06 L129.5,207.06 L131.24,212.16 L131.28,212.16 L133.13,207.06 L136,207.06 L132.59,215.05 Z M153.54,207.49 L150.2,207.49 L140.34,212.84 L138.21,212.84 L138.21,204.72 L144.86,204.72 L144.86,199.82 L135.73,199.82 C135.95,199.82 136.15,199.71 136.27,199.52 L146.71,173.48 C146.77,173.38 146.81,173.26 146.81,173.15 L146.81,154.64 C146.81,154.29 147.09,154.01 147.44,154.01 L147.71,154.01 C148.06,154.01 148.34,153.73 148.34,153.38 L148.34,151.58 C148.34,151.23 148.06,150.95 147.71,150.95 L121.9,150.95 L149.3,142.28 L148.93,144.03 C150.66,144.4 151.75,145.05 151.88,150.57 L151.1,150.57 L151.1,201.12 L154,201.12 C153.35,203.55 153.46,206.35 153.54,207.49 Z M173.22,175.46 L167.76,175.46 C165.96,175.46 164.5,174 164.5,172.2 L164.5,160.12 C164.5,158.32 165.96,156.86 167.76,156.86 L173.22,156.86 L173.22,175.46 Z M198,180.19 L188.5,180.19 C187.19,180.19 186.14,179.13 186.14,177.83 C186.14,176.53 185.08,175.47 183.78,175.47 L175.33,175.47 L175.33,156.88 L186.14,156.88 L189.5,156.88 L194.28,156.88 C196.12,156.88 197.64,158.21 197.95,159.95 C197.92,159.95 197.9,159.95 197.87,159.95 L193.48,159.95 C192.4,159.95 191.53,160.82 191.53,161.9 L191.53,177.14 C191.53,178.22 192.4,179.09 193.48,179.09 L197.87,179.09 C197.91,179.09 197.96,179.09 198,179.08 L198,180.19 Z" id="Shape" fill-rule="nonzero"></path>
            <polygon id="Path" points="68.08 176.86 68.05 176.86 66.77 182.79 69.36 182.79"></polygon>
            <polygon id="Path" points="111.4 209.35 110.12 215.27 112.71 215.27 111.43 209.35"></polygon>
            <path d="M101.04,209.01 L99.78,209.01 L99.78,212.81 L100.89,212.81 C102.16,212.81 102.88,212.26 102.88,210.83 C102.89,209.62 102.28,209.01 101.04,209.01 Z" id="Path"></path>
            <path d="M168.87,214.16 C159.39,214.16 151.7,221.85 151.7,231.33 C151.7,240.81 159.38,248.49 168.87,248.49 C178.35,248.49 186.03,240.81 186.03,231.33 C186.03,221.85 178.35,214.16 168.87,214.16 Z M168.87,239.88 C164.14,239.88 160.31,236.05 160.31,231.32 C160.31,226.59 164.14,222.76 168.87,222.76 C173.6,222.76 177.43,226.59 177.43,231.32 C177.43,236.05 173.59,239.88 168.87,239.88 Z" id="Shape" fill-rule="nonzero"></path>
            <circle id="Oval" transform="translate(168.873697, 231.320071) rotate(-67.499572) translate(-168.873697, -231.320071) " cx="168.873697" cy="231.320071" r="6.46016311"></circle>
            <path d="M68.27,214.16 C58.79,214.16 51.1,221.85 51.1,231.33 C51.1,240.81 58.78,248.49 68.27,248.49 C77.75,248.49 85.43,240.81 85.43,231.33 C85.43,221.85 77.75,214.16 68.27,214.16 Z M68.27,239.88 C63.54,239.88 59.71,236.05 59.71,231.32 C59.71,226.59 63.54,222.76 68.27,222.76 C73,222.76 76.83,226.59 76.83,231.32 C76.82,236.05 72.99,239.88 68.27,239.88 Z" id="Shape" fill-rule="nonzero"></path>
            <circle id="Oval" transform="translate(68.270677, 231.320111) rotate(-67.499572) translate(-68.270677, -231.320111) " cx="68.270677" cy="231.320111" r="6.46016311"></circle>
            <path d="M32.35,214.16 C22.87,214.16 15.19,221.85 15.19,231.33 C15.19,240.81 22.87,248.49 32.35,248.49 C41.83,248.49 49.51,240.81 49.51,231.33 C49.51,221.85 41.83,214.16 32.35,214.16 Z M32.35,239.88 C27.62,239.88 23.79,236.05 23.79,231.32 C23.79,226.59 27.62,222.76 32.35,222.76 C37.08,222.76 40.91,226.59 40.91,231.32 C40.91,236.05 37.08,239.88 32.35,239.88 Z" id="Shape" fill-rule="nonzero"></path>
            <circle id="Oval" cx="32.35" cy="231.32" r="6.46"></circle>
            <path d="M110.03,86.18 L102.82,86.18 L102.82,37.86 L77.16,37.86 L51.85,86.18 L51.85,103.36 L81.97,103.36 L81.97,117.33 L102.81,117.33 L102.81,103.36 L110.02,103.36 L110.02,86.18 L110.03,86.18 Z M81.97,86.18 L69.6,86.18 L81.74,61.22 L81.97,61.22 L81.97,86.18 Z" id="Shape" fill-rule="nonzero"></path>
            <path d="M150.13,110.75 L150.13,118.22 C150.76,118.12 151.37,118 151.97,117.87 L150.17,110.74 L150.13,110.74 L150.13,110.75 Z" id="Path"></path>
            <path d="M166.71,57.9 C166.71,40.49 154.23,36.26 140.49,36.26 C126.75,36.26 114.27,40.5 114.27,57.9 C114.27,65.23 118.05,72.21 125.03,74.39 L125.03,74.62 C121.37,75.88 112.2,77.25 112.2,94.2 C112.2,107.87 117.15,115.32 129.09,117.89 L129.09,108.74 L126.52,108.74 L126.52,105.56 L135.45,105.56 L135.45,108.74 L132.88,108.74 L132.88,118.51 C134.46,118.7 136.14,118.82 137.92,118.88 C136.44,118.21 135.99,116.79 135.99,114.49 L135.99,105.56 L139.77,105.56 L139.77,115.21 C139.77,116.36 139.9,116.84 140.64,116.84 C141.38,116.84 141.51,116.37 141.51,115.21 L141.51,105.56 L145.29,105.56 L145.29,114.49 C145.29,116.76 144.63,118.2 143.1,118.88 C144.35,118.84 145.55,118.76 146.7,118.66 L146.7,105.56 L150.81,105.56 L152.74,113.81 L152.78,113.81 L152.78,105.56 L156.34,105.56 L156.34,116.58 C165.08,113.2 168.8,106.03 168.8,94.19 C168.8,77.24 159.64,75.87 155.97,74.61 L155.97,74.38 C162.7,72.21 166.71,65.23 166.71,57.9 Z M140.49,50.68 C145.19,50.68 145.19,55.15 145.19,59.73 C145.19,64.31 145.19,68.89 140.49,68.89 C135.79,68.89 135.79,64.31 135.79,59.73 C135.79,55.15 135.79,50.68 140.49,50.68 Z M140.49,104.5 C134.99,104.5 135.11,100.03 135.11,93.28 C135.11,86.29 134.99,81.83 140.49,81.83 C145.99,81.83 145.87,86.3 145.87,93.28 C145.87,100.04 145.98,104.5 140.49,104.5 Z" id="Shape" fill-rule="nonzero"></path>
            <path d="M50.76,32.92 C58,32.92 58,28.89 58,22.46 C58,16.23 58,12 50.76,12 C43.52,12 43.52,16.23 43.52,22.46 C43.52,28.89 43.52,32.92 50.76,32.92 Z M50.76,15.73 C51.97,15.73 52.2,16.58 52.2,22.47 C52.2,28.36 51.97,29.21 50.76,29.21 C49.55,29.21 49.32,28.36 49.32,22.47 C49.32,16.57 49.55,15.73 50.76,15.73 Z" id="Shape" fill-rule="nonzero"></path>
            <path d="M73.93,22.46 C73.93,17.7 73.76,16.57 72.86,15.02 C71.96,13.36 70.32,12.4 67.82,12.4 L59.7,12.4 L59.7,32.52 L67.9,32.52 C73.76,32.52 73.93,26.86 73.93,22.46 Z M66.49,28.47 L65.33,28.47 L65.33,16.46 L66.15,16.46 C67.9,16.46 68.12,17.5 68.12,19.53 L68.12,25.39 C68.12,26.89 67.93,28.47 66.49,28.47 Z" id="Shape" fill-rule="nonzero"></path>
            <polygon id="Path" points="85.48 32.52 89.74 12.4 83.79 12.4 81.96 27.96 81.9 27.96 80.07 12.4 73.98 12.4 78.21 32.52"></polygon>
            <polygon id="Path" points="102.9 27.96 96.16 27.96 96.16 24.46 102.22 24.46 102.22 20.07 96.16 20.07 96.16 16.97 102.65 16.97 102.65 12.4 90.53 12.4 90.53 32.52 102.9 32.52"></polygon>
            <polygon id="Path" points="116.51 27.96 110.42 27.96 116.54 16.32 116.54 12.4 104.48 12.4 104.48 16.97 110 16.97 104.05 28.66 104.05 32.52 116.51 32.52"></polygon>
            <polygon id="Path" points="130.55 27.96 123.81 27.96 123.81 24.46 129.87 24.46 129.87 20.07 123.81 20.07 123.81 16.97 130.29 16.97 130.29 12.4 118.17 12.4 118.17 32.52 130.55 32.52"></polygon>
            <polygon id="Path" points="137.56 17.87 137.62 17.87 140.1 32.52 144.16 32.52 146.64 17.87 146.7 17.87 146.7 32.52 151.99 32.52 151.99 12.4 143.99 12.4 142.16 24.72 142.1 24.72 140.44 12.4 132.27 12.4 132.27 32.52 137.56 32.52"></polygon>
            <polygon id="Path" points="166.56 27.96 159.83 27.96 159.83 24.46 165.89 24.46 165.89 20.07 159.83 20.07 159.83 16.97 166.31 16.97 166.31 12.4 154.19 12.4 154.19 32.52 166.56 32.52"></polygon>
            <path d="M51.95,39 L46.93,39 L43.55,53.28 L47.67,53.28 L48.07,51.1 L50.75,51.1 L51.19,53.28 L55.31,53.28 L51.95,39 Z M48.49,47.98 L49.41,42.12 L49.45,42.12 L50.31,47.98 L48.49,47.98 Z" id="Shape" fill-rule="nonzero"></path>
            <polygon id="Path" points="55.55 53.28 64.39 53.28 64.39 50.04 60.07 50.04 64.41 41.78 64.41 39 55.85 39 55.85 42.24 59.77 42.24 55.55 50.54"></polygon>
            <polygon id="Path" points="58.15 38.08 62.27 38.08 63.45 35.2 60.81 35.2 60.23 36.82 59.53 35.2 57.01 35.2"></polygon>
            <polygon id="Path" points="82.41 131.29 82.38 131.29 77.04 124.08 72.61 124.08 72.61 135.6 76.33 135.6 76.33 128.32 76.36 128.32 81.88 135.6 86.13 135.6 86.13 124.08 82.41 124.08"></polygon>
            <path d="M92.16,124.08 L87.16,135.61 L91.28,135.61 L91.97,133.74 L97.01,133.74 L97.7,135.61 L101.82,135.61 L96.86,124.08 L92.16,124.08 Z M92.87,131.34 L94.47,126.98 L94.5,126.98 L96.1,131.34 L92.87,131.34 Z" id="Shape" fill-rule="nonzero"></path>
            <path d="M114.1,129.95 L114.1,129.92 C115.13,129.66 115.94,128.84 115.94,127.29 C115.94,125.37 114.92,124.08 112.08,124.08 L102.85,124.08 L102.85,135.61 L106.69,135.61 L106.69,131.77 L110.21,131.77 C111.18,131.77 111.78,132.09 111.78,133.9 C111.78,134.43 111.8,135.11 112.01,135.61 L116.22,135.61 C115.74,135.04 115.67,134.29 115.49,132.03 C115.38,130.78 114.83,130.2 114.1,129.95 Z M110.39,129.18 L106.69,129.18 L106.69,126.66 L110.39,126.66 C111.34,126.66 111.83,127.14 111.83,127.9 C111.82,128.69 111.34,129.18 110.39,129.18 Z" id="Shape" fill-rule="nonzero"></path>
            <polygon id="Path" points="123.3 120.75 121.83 123.01 125.06 123.01 127.46 120.75"></polygon>
            <path d="M121.51,124.08 L116.51,135.61 L120.63,135.61 L121.32,133.74 L126.36,133.74 L127.05,135.61 L131.17,135.61 L126.21,124.08 L121.51,124.08 Z M122.22,131.34 L123.82,126.98 L123.85,126.98 L125.45,131.34 L122.22,131.34 Z" id="Shape" fill-rule="nonzero"></path>
            <polygon id="Path" points="131.82 126.66 138.59 126.66 131.32 133.39 131.32 135.6 143.62 135.6 143.62 133.02 136.52 133.02 143.73 126.34 143.73 124.08 131.82 124.08"></polygon>
        </g>
    </g>
</svg>