<?xml version="1.0" encoding="utf-8"?>
<!-- Generator: Adobe Illustrator 26.1.0, SVG Export Plug-In . SVG Version: 6.00 Build 0)  -->
<svg version="1.1" id="Layer_1" xmlns="http://www.w3.org/2000/svg" xmlns:xlink="http://www.w3.org/1999/xlink" x="0px" y="0px"
	 viewBox="0 0 164.96 77.58" style="enable-background:new 0 0 164.96 77.58;" xml:space="preserve">
<style type="text/css">
	.st0{fill:#3C3C3B;stroke:#3C3C3B;stroke-width:2;stroke-linecap:round;stroke-linejoin:round;stroke-miterlimit:10;}
	.st1{fill:#3C3C3B;stroke:#3C3C3B;stroke-width:2.7875;stroke-linecap:round;stroke-linejoin:round;stroke-miterlimit:10;}
	.st2{fill:#FFFFFF;stroke:#3C3C3B;stroke-width:2;stroke-linecap:round;stroke-linejoin:round;stroke-miterlimit:10;}
	.st3{fill:#FFFFFF;}
	.st4{fill:#FFFFFF;stroke:#3C3C3B;stroke-width:1.2649;stroke-linecap:round;stroke-linejoin:round;stroke-miterlimit:10;}
	.st5{fill:#FFFFFF;stroke:#3C3C3B;stroke-width:1.0308;stroke-linecap:round;stroke-linejoin:round;stroke-miterlimit:10;}
</style>
<g>
	<rect x="3.25" y="6.65" class="st0" width="155.6" height="67.74"/>
	<path class="st0" d="M6.3,13.77l-3.56-0.94C1.72,12.55,1,11.62,1,10.56V6.65h5.3V13.77z"/>
	<path class="st1" d="M156.6,1.39l4.68,1.4c1.35,0.4,2.29,1.78,2.29,3.35v5.77h-6.97V1.39z"/>
	<rect x="154.35" y="6.65" class="st2" width="4.5" height="69.93"/>
</g>
<g>
	<g>
		<polygon class="st3" points="127.96,25.65 127.55,26.16 127.55,26.16 127.55,25.65 127.09,25.65 127.09,27.13 127.55,27.13 
			127.55,26.69 127.67,26.55 128.04,27.13 128.61,27.13 127.98,26.23 128.52,25.65 		"/>
		<g>
			<path class="st3" d="M130.02,26.8c0.12,0,0.29-0.08,0.29-0.41c0-0.33-0.18-0.41-0.29-0.41s-0.29,0.08-0.29,0.41
				C129.73,26.72,129.9,26.8,130.02,26.8 M130.02,25.62c0.45,0,0.75,0.32,0.75,0.78c0,0.45-0.3,0.77-0.75,0.77
				c-0.45,0-0.75-0.32-0.75-0.77C129.27,25.94,129.57,25.62,130.02,25.62"/>
		</g>
		<polygon class="st3" points="132.49,25.65 132.49,26.44 132.48,26.44 132.05,25.65 131.59,25.65 131.59,27.13 132.02,27.13 
			132.02,26.32 132.02,26.32 132.48,27.13 132.92,27.13 132.92,25.65 		"/>
		<polygon class="st3" points="133.71,25.65 133.71,26.03 134.13,26.03 134.13,27.13 134.58,27.13 134.58,26.03 135,26.03 
			135,25.65 		"/>
		<polygon class="st3" points="135.79,25.65 135.79,27.13 137.03,27.13 137.03,26.75 136.24,26.75 136.24,26.57 136.94,26.57 
			136.94,26.21 136.24,26.21 136.24,26.03 137.01,26.03 137.01,25.65 		"/>
		<g>
			<path class="st3" d="M138.9,26.6c0,0.41-0.18,0.57-0.56,0.57c-0.38,0-0.54-0.21-0.54-0.53v-0.12h0.41v0.08
				c0,0.11,0,0.22,0.12,0.22c0.12,0,0.11-0.14,0.11-0.21v-0.95h0.46V26.6z"/>
		</g>
		<polygon class="st3" points="140.66,25.65 140.66,26.44 140.66,26.44 140.22,25.65 139.76,25.65 139.76,27.13 140.19,27.13 
			140.19,26.32 140.19,26.32 140.65,27.13 141.09,27.13 141.09,25.65 		"/>
		<polygon class="st3" points="141.95,25.65 141.95,27.13 143.2,27.13 143.2,26.75 142.41,26.75 142.41,26.57 143.11,26.57 
			143.11,26.21 142.41,26.21 142.41,26.03 143.18,26.03 143.18,25.65 		"/>
		<g>
			<path class="st3" d="M144.49,26.3h0.24c0.08,0,0.2-0.01,0.2-0.15c0-0.09-0.05-0.15-0.23-0.15h-0.21V26.3z M144.03,25.65h0.87
				c0.26,0,0.48,0.14,0.48,0.42c0,0.15-0.07,0.31-0.22,0.37c0.12,0.05,0.2,0.18,0.22,0.37c0.01,0.07,0.01,0.25,0.05,0.32h-0.46
				c-0.02-0.07-0.03-0.15-0.04-0.23c-0.01-0.14-0.02-0.29-0.21-0.29h-0.24v0.52h-0.46V25.65z"/>
		</g>
		<polygon class="st3" points="146.94,25.65 146.68,26.2 146.44,25.65 145.93,25.65 146.45,26.58 146.45,27.13 146.91,27.13 
			146.91,26.58 147.44,25.65 		"/>
		<g>
			<polygon class="st3" points="130.25,24.55 130.25,24.55 131.93,24.55 131.93,24.55 			"/>
			<polygon class="st3" points="151.95,14.7 138.04,16.36 151.95,14.7 			"/>
			<polygon class="st3" points="122.46,24.55 122.46,24.55 128.13,24.55 128.13,24.55 			"/>
			<polygon class="st3" points="127.61,17.61 125.11,20.93 127.61,17.61 			"/>
			<polygon class="st3" points="125.11,20.93 122.38,24.55 122.46,24.55 122.46,24.46 			"/>
			<polygon class="st3" points="149.6,21.19 152.95,14.59 152.95,14.59 151.95,14.7 152.89,14.7 			"/>
			<path class="st3" d="M150.31,16.4c0-0.08-0.07-0.08-0.13-0.08h-0.12v0.18h0.11C150.24,16.5,150.31,16.49,150.31,16.4z"/>
			<polygon class="st3" points="127.61,17.61 127.61,17.61 138.04,16.36 			"/>
			<path class="st3" d="M150.16,16.98c0.24,0,0.42-0.19,0.42-0.46c0-0.27-0.19-0.46-0.42-0.46c-0.24,0-0.42,0.19-0.42,0.46
				C149.74,16.78,149.9,16.98,150.16,16.98z M149.95,16.23h0.23c0.15,0,0.22,0.05,0.22,0.18c0,0.11-0.07,0.16-0.16,0.17l0.17,0.27
				h-0.11l-0.16-0.26h-0.09v0.26h-0.1V16.23z"/>
			<path class="st3" d="M127.03,22.81v-0.17h1.74v0.3c0,0.31,0.13,0.56,0.45,0.56c0.33,0,0.44-0.29,0.44-0.56
				c0-0.4-0.16-0.5-0.39-0.64c-0.24-0.13-0.56-0.25-0.89-0.42c-0.98-0.47-1.29-0.83-1.29-1.78c0-0.9,0.26-1.37,0.68-1.67
				c0.31-0.21,0.75-0.39,1.46-0.39c1.81,0,2.11,0.9,2.11,1.96h-1.68v-0.26c0-0.28-0.11-0.52-0.42-0.52c-0.28,0-0.41,0.22-0.41,0.48
				c0,1.28,2.67,0.61,2.67,2.9c0,1.1-0.38,1.71-1.25,1.95h1.68v-6.4h1.79v6.4h0.61v-6.4h3.85v1.45h-2.06v0.99h1.93v1.4h-1.93v1.11
				h2.14v1.45h1.55c-1.07-0.41-1.11-1.75-1.11-3.19c0-1.83,0.1-3.33,2.28-3.33c1.76,0,2.16,0.88,2.16,2.17h-1.68v-0.26
				c0-0.47-0.11-0.73-0.46-0.73c-0.43,0-0.46,0.39-0.46,0.79v2.63c0,0.39,0.04,0.86,0.47,0.86c0.43,0,0.5-0.33,0.5-0.81v-0.44H141
				v-1.18h2.19v3.48h0.59v-6.4h1.79v4.94h1.95v1.45h0.36l1.71-3.36l3.29-6.49h-0.94l-13.91,1.66l-10.43,1.24l-2.5,3.32l-2.65,3.52
				v0.1h5.67C127.41,24.34,127.03,23.81,127.03,22.81z M150.16,15.98c0.29,0,0.54,0.22,0.54,0.55c0,0.33-0.25,0.55-0.54,0.55
				c-0.32,0-0.54-0.24-0.54-0.55C149.62,16.2,149.87,15.98,150.16,15.98z"/>
			<path class="st3" d="M150.05,16.58h0.09l0.16,0.26h0.11l-0.17-0.27c0.09-0.01,0.16-0.06,0.16-0.17c0-0.12-0.08-0.18-0.22-0.18
				h-0.23v0.61h0.1V16.58z M150.05,16.32h0.12c0.06,0,0.13,0.01,0.13,0.08c0,0.09-0.07,0.1-0.14,0.1h-0.11V16.32z"/>
			<path class="st3" d="M150.16,17.08c0.29,0,0.54-0.22,0.54-0.55c0-0.33-0.25-0.55-0.54-0.55c-0.29,0-0.54,0.22-0.54,0.55
				C149.62,16.84,149.84,17.08,150.16,17.08z M150.16,16.07c0.24,0,0.42,0.19,0.42,0.46c0,0.27-0.19,0.46-0.42,0.46
				c-0.26,0-0.42-0.2-0.42-0.46C149.74,16.26,149.92,16.07,150.16,16.07z"/>
		</g>
	</g>
</g>
<rect x="3.25" y="6.65" class="st2" width="4.5" height="69.93"/>
<rect x="41.03" y="6.65" class="st2" width="4.5" height="69.93"/>
<g>
	
		<rect x="22.5" y="25.34" transform="matrix(-1.836970e-16 1 -1 -1.836970e-16 66.3657 17.5851)" class="st4" width="3.79" height="33.27"/>
	
		<rect x="60.27" y="25.34" transform="matrix(-1.836970e-16 1 -1 -1.836970e-16 104.1395 -20.1888)" class="st4" width="3.79" height="33.27"/>
	
		<rect x="98.05" y="25.34" transform="matrix(-1.836970e-16 1 -1 -1.836970e-16 141.9134 -57.9626)" class="st4" width="3.79" height="33.27"/>
	
		<rect x="135.82" y="25.34" transform="matrix(-1.836970e-16 1 -1 -1.836970e-16 179.6872 -95.7364)" class="st4" width="3.79" height="33.27"/>
</g>
<g>
	
		<rect x="23.13" y="55.66" transform="matrix(-1.836970e-16 1 -1 -1.836970e-16 96.6811 47.9004)" class="st5" width="2.51" height="33.27"/>
	
		<rect x="60.91" y="55.66" transform="matrix(-1.836970e-16 1 -1 -1.836970e-16 134.455 10.1265)" class="st5" width="2.51" height="33.27"/>
	
		<rect x="98.68" y="55.66" transform="matrix(-1.836970e-16 1 -1 -1.836970e-16 172.2288 -27.6473)" class="st5" width="2.51" height="33.27"/>
	
		<rect x="136.45" y="55.66" transform="matrix(-1.836970e-16 1 -1 -1.836970e-16 210.0027 -65.4211)" class="st5" width="2.51" height="33.27"/>
</g>
<g>
	
		<rect x="23.13" y="-8.14" transform="matrix(-1.836970e-16 1 -1 -1.836970e-16 32.8872 -15.8935)" class="st5" width="2.51" height="33.27"/>
	
		<rect x="60.91" y="-8.14" transform="matrix(-1.836970e-16 1 -1 -1.836970e-16 70.6611 -53.6674)" class="st5" width="2.51" height="33.27"/>
	
		<rect x="98.68" y="-8.14" transform="matrix(-1.836970e-16 1 -1 -1.836970e-16 108.4349 -91.4412)" class="st5" width="2.51" height="33.27"/>
	
		<rect x="136.45" y="-8.14" transform="matrix(-1.836970e-16 1 -1 -1.836970e-16 146.2088 -129.215)" class="st5" width="2.51" height="33.27"/>
</g>
<rect x="78.8" y="6.65" class="st2" width="4.5" height="69.93"/>
<rect x="116.57" y="6.65" class="st2" width="4.5" height="69.93"/>
</svg>
